<svg id="svg" version="1.1" xmlns="http://www.w3.org/2000/svg" xmlns:xlink="http://www.w3.org/1999/xlink" width="400" height="400" viewBox="0, 0, 400,400"><g id="svgg"><path id="path0" d="M204.712 29.225 C 204.604 29.334,201.904 29.844,198.712 30.357 C 195.521 30.870,190.373 31.768,187.273 32.353 C 180.253 33.678,175.672 34.422,171.455 34.923 C 163.432 35.874,159.709 37.982,155.491 43.961 C 153.082 47.376,151.933 48.432,149.757 49.232 C 136.358 54.157,122.017 82.069,120.287 106.590 C 118.407 133.229,131.087 168.324,161.658 221.091 C 163.222 223.791,166.851 230.091,169.722 235.091 L 174.941 244.182 172.141 250.727 C 159.643 279.938,155.071 294.552,151.213 317.636 C 149.705 326.662,150.729 340.995,153.466 349.177 C 157.537 361.349,166.971 369.927,179.706 373.038 C 182.664 373.760,191.636 373.174,191.636 372.259 C 191.636 372.090,191.287 372.062,190.860 372.198 C 190.172 372.416,190.109 372.338,190.315 371.517 C 190.443 371.007,190.384 370.489,190.183 370.364 C 189.427 369.897,189.872 369.546,191.501 369.323 C 194.637 368.893,199.357 371.864,200.431 374.945 C 200.633 375.525,200.940 376.000,201.114 376.000 C 201.755 376.000,207.190 371.061,208.420 369.360 L 209.146 368.356 208.391 367.135 C 206.711 364.416,207.367 363.021,212.259 358.909 C 214.615 356.929,214.581 354.725,212.202 355.180 C 210.326 355.539,212.400 353.006,214.392 352.506 C 218.474 351.481,219.059 354.818,215.615 359.483 C 212.970 363.067,213.454 363.147,216.749 359.671 C 218.342 357.990,219.741 356.711,219.858 356.828 C 220.086 357.056,218.916 360.402,217.944 362.302 L 217.355 363.455 218.115 362.777 C 218.533 362.405,219.531 360.996,220.332 359.647 C 222.505 355.989,225.040 354.838,226.389 356.897 C 227.480 358.562,226.326 362.407,225.212 360.818 C 224.048 359.158,222.374 360.654,221.048 364.538 C 219.506 369.057,216.711 371.036,213.038 370.210 L 211.460 369.856 207.977 373.278 C 204.659 376.537,204.368 377.091,205.976 377.091 C 206.230 377.091,207.541 376.117,208.890 374.926 C 211.307 372.792,212.311 372.284,215.000 371.832 C 216.898 371.514,216.765 371.995,214.133 374.964 C 211.202 378.271,211.613 378.524,214.804 375.376 C 218.365 371.865,221.503 370.342,224.317 370.759 C 229.213 371.486,231.951 370.780,233.945 368.278 C 236.407 365.189,234.680 361.978,231.958 364.585 C 230.595 365.891,230.526 368.345,231.884 367.218 C 232.485 366.719,232.895 367.037,232.610 367.781 C 231.367 371.019,227.302 368.492,228.315 365.111 C 229.140 362.358,230.611 361.366,233.657 361.511 C 236.090 361.627,236.333 361.571,237.018 360.727 C 238.346 359.091,238.492 360.874,237.268 363.770 C 237.009 364.382,237.062 364.405,237.817 364.001 C 239.058 363.336,238.566 365.378,236.939 367.643 C 236.087 368.829,235.815 369.488,236.073 369.745 C 237.438 371.111,232.323 373.958,229.041 373.659 C 228.169 373.579,226.308 373.407,224.907 373.275 C 221.757 372.978,219.140 373.838,216.272 376.110 C 213.690 378.156,214.731 378.336,218.673 376.524 C 222.187 374.910,226.033 374.427,227.839 375.373 C 229.267 376.121,232.883 374.853,242.830 370.115 C 250.760 366.338,255.496 358.268,258.263 343.818 C 259.319 338.308,259.380 326.771,258.386 320.909 C 257.616 316.368,257.655 316.472,256.940 317.065 C 255.855 317.965,254.431 317.374,253.182 315.504 C 251.393 312.827,252.008 312.317,255.139 313.881 C 257.064 314.843,257.132 314.789,256.680 312.669 C 256.110 309.996,255.202 309.428,253.837 310.889 C 252.735 312.068,252.001 312.104,251.999 310.979 C 251.997 310.021,250.587 307.943,249.800 307.737 C 247.969 307.258,249.546 306.274,253.198 305.616 C 254.015 305.469,254.506 305.200,254.403 304.957 C 254.307 304.730,254.033 303.946,253.794 303.214 L 253.359 301.882 251.861 302.352 C 251.037 302.610,250.077 302.941,249.727 303.086 C 248.613 303.549,249.001 302.387,250.545 300.632 C 251.345 299.723,252.000 298.890,252.000 298.780 C 252.000 298.453,247.913 289.639,245.230 284.182 L 242.727 279.091 242.523 281.636 C 242.187 285.805,240.995 287.775,240.591 284.827 C 240.191 281.912,239.073 280.278,233.856 274.986 C 226.989 268.020,225.630 265.223,227.972 262.881 C 229.295 261.558,230.554 261.520,232.688 262.740 C 234.607 263.837,234.790 263.745,233.882 262.137 C 233.501 261.462,231.362 257.529,229.129 253.398 L 225.069 245.887 231.314 234.489 C 266.485 170.294,270.692 161.790,276.374 143.408 C 285.254 114.678,283.172 88.751,270.256 67.189 C 269.265 65.535,267.374 62.055,266.054 59.455 C 259.020 45.607,255.781 42.129,249.292 41.456 C 244.003 40.908,235.835 38.398,217.818 31.785 C 211.365 29.416,205.633 28.297,204.712 29.225 M209.366 67.407 C 210.315 67.688,211.991 68.116,213.091 68.358 C 236.027 73.405,248.804 92.641,248.843 122.182 C 248.869 142.354,241.947 168.620,229.138 196.957 C 227.240 201.154,227.351 202.198,230.762 212.274 L 232.025 216.003 229.523 219.911 C 228.147 222.060,225.334 226.496,223.271 229.769 L 219.520 235.719 218.867 234.860 C 218.508 234.387,217.413 232.609,216.433 230.909 C 215.454 229.209,213.156 225.249,211.326 222.110 C 209.497 218.970,208.000 216.330,208.000 216.242 C 208.000 215.910,199.178 201.237,198.563 200.545 C 197.598 199.462,189.882 186.355,183.897 175.636 C 170.365 151.397,164.750 135.115,162.890 114.727 C 161.681 101.468,167.099 80.749,172.187 79.180 C 172.584 79.057,174.042 78.529,175.427 78.007 C 183.252 75.055,195.811 74.678,203.636 77.160 C 223.709 83.528,238.212 111.229,234.544 136.195 C 233.861 140.840,233.077 144.226,229.474 158.102 C 227.493 165.733,225.327 181.109,226.493 179.273 C 231.449 171.466,240.955 143.930,243.126 131.091 C 248.644 98.465,233.896 70.941,209.636 68.589 C 208.636 68.492,206.264 68.230,204.364 68.006 C 200.480 67.549,194.311 67.782,189.130 68.582 C 186.127 69.045,184.396 69.046,185.857 68.584 C 191.830 66.693,204.770 66.045,209.366 67.407 M153.615 69.783 C 155.314 72.579,155.288 72.682,152.493 74.269 C 149.686 75.863,149.883 75.926,148.174 72.871 C 146.682 70.204,146.625 70.370,149.634 68.612 C 152.180 67.126,151.962 67.062,153.615 69.783 M150.968 81.946 C 157.540 85.092,160.232 93.080,156.920 99.614 C 152.542 108.255,139.805 108.923,134.583 100.786 C 127.601 89.906,139.357 76.390,150.968 81.946 M145.091 85.119 C 145.091 85.949,147.219 87.636,148.266 87.636 C 149.943 87.636,150.935 86.706,150.017 85.997 C 148.661 84.950,145.091 84.313,145.091 85.119 M139.206 87.182 C 137.424 89.098,136.917 90.138,137.630 90.412 C 138.604 90.785,140.560 89.645,141.074 88.404 C 141.976 86.227,140.806 85.462,139.206 87.182 M143.310 91.467 C 141.982 92.981,141.919 93.696,142.940 95.697 L 143.699 97.184 145.753 96.942 C 148.249 96.649,148.314 96.589,148.682 94.262 C 149.032 92.052,148.983 91.956,147.014 90.958 C 144.967 89.920,144.628 89.966,143.310 91.467 M152.566 92.445 C 151.827 93.499,151.847 95.064,152.613 96.234 C 153.501 97.589,154.182 96.510,154.182 93.749 C 154.182 91.421,153.608 90.957,152.566 92.445 M136.727 96.200 C 136.727 97.265,139.499 100.855,140.056 100.511 C 140.808 100.046,140.370 97.512,139.406 96.754 C 138.543 96.075,136.727 95.700,136.727 96.200 M145.699 101.182 L 144.545 102.364 145.873 102.474 C 147.299 102.593,149.818 101.730,149.818 101.122 C 149.818 99.699,147.109 99.738,145.699 101.182 M147.959 116.115 C 148.003 116.436,144.328 120.727,144.009 120.727 C 143.667 120.727,139.636 116.755,139.636 116.418 C 139.636 116.240,140.572 115.180,141.715 114.064 L 143.793 112.035 145.856 113.926 C 146.990 114.967,147.936 115.952,147.959 116.115 M200.514 242.585 C 201.050 243.007,202.031 244.157,202.693 245.140 C 203.730 246.680,203.960 246.850,204.356 246.373 C 205.059 245.526,205.274 245.669,206.312 247.670 C 207.494 249.948,207.495 250.074,206.345 251.140 C 204.726 252.641,201.245 250.762,201.649 248.606 C 201.827 247.658,201.689 247.279,200.899 246.541 C 198.388 244.195,198.042 240.642,200.514 242.585 M214.095 247.344 C 214.604 248.182,214.620 248.454,214.206 249.228 C 213.939 249.726,213.820 250.389,213.940 250.703 C 214.451 252.035,213.381 251.120,212.374 249.364 C 210.328 245.795,211.980 243.856,214.095 247.344 M221.518 248.413 C 221.968 249.090,222.130 249.129,222.787 248.719 C 223.786 248.095,224.846 248.506,224.561 249.407 C 224.414 249.867,224.761 250.589,225.627 251.625 C 227.657 254.055,227.208 256.121,224.651 256.121 C 223.364 256.121,221.330 254.187,221.529 253.153 C 221.702 252.255,222.505 252.416,223.021 253.451 C 223.829 255.071,225.625 254.730,225.183 253.042 C 224.723 251.280,221.771 250.281,220.571 251.481 C 219.571 252.481,219.895 253.988,221.638 256.431 C 225.950 262.475,226.159 263.107,224.500 265.078 C 223.404 266.381,223.072 266.263,223.211 264.617 C 223.354 262.919,222.520 260.887,219.790 256.281 C 216.965 251.513,216.241 248.799,217.907 249.217 C 218.634 249.399,218.956 249.256,219.423 248.542 C 220.151 247.431,220.838 247.389,221.518 248.413 M212.506 251.344 C 213.528 252.383,214.850 253.487,215.445 253.798 C 216.469 254.334,217.952 256.077,219.364 258.405 C 219.714 258.982,220.410 260.011,220.909 260.690 C 222.137 262.359,222.143 264.435,220.926 265.653 C 219.416 267.163,216.851 266.580,215.277 264.370 C 214.848 263.767,213.731 262.759,212.794 262.130 C 210.887 260.848,209.845 259.723,209.812 258.909 C 209.800 258.609,208.898 257.744,207.808 256.987 C 205.768 255.571,204.901 254.022,205.827 253.449 C 206.726 252.894,207.828 253.711,209.950 256.505 C 211.122 258.049,212.173 259.221,212.285 259.109 C 212.396 258.998,212.150 258.539,211.737 258.089 C 207.962 253.985,209.549 251.641,213.876 254.931 C 215.714 256.327,215.740 256.336,214.374 255.095 C 213.580 254.374,212.285 253.424,211.497 252.983 C 209.872 252.074,208.518 250.451,208.887 249.854 C 209.421 248.989,210.715 249.521,212.506 251.344 M178.875 253.093 C 179.306 254.095,181.219 258.209,183.126 262.237 C 196.125 289.692,201.549 319.021,196.665 335.448 C 191.004 354.489,173.875 361.058,163.223 348.274 C 154.855 338.231,156.138 314.808,166.862 281.818 C 170.066 271.964,170.502 270.706,173.697 262.087 C 175.419 257.439,177.010 253.105,177.231 252.455 C 177.766 250.879,177.955 250.953,178.875 253.093 M206.817 257.756 C 208.484 258.412,208.822 258.909,207.602 258.909 C 207.182 258.909,206.368 259.188,205.792 259.528 C 203.756 260.731,201.270 258.559,203.128 257.200 C 203.816 256.697,204.324 256.774,206.817 257.756 M211.697 263.693 C 216.861 267.108,218.609 267.981,220.303 267.992 C 221.832 268.002,221.679 268.627,219.924 269.538 C 218.099 270.485,217.195 270.147,213.873 267.276 C 210.563 264.416,209.876 264.000,208.460 264.000 C 206.470 264.000,205.832 266.268,207.299 268.133 C 208.213 269.295,209.818 269.459,209.818 268.390 C 209.818 267.660,208.924 266.545,208.338 266.545 C 208.152 266.545,208.000 266.300,208.000 266.000 C 208.000 265.019,209.689 265.378,210.695 266.573 C 213.361 269.741,210.064 272.443,206.957 269.636 C 206.182 268.936,205.277 268.364,204.945 268.364 C 204.112 268.364,203.790 267.328,204.346 266.438 C 204.746 265.798,204.697 265.617,203.983 265.078 C 202.995 264.333,203.214 263.450,204.535 262.848 C 205.511 262.403,205.690 262.007,205.085 261.633 C 204.458 261.245,205.080 260.727,206.173 260.727 C 206.863 260.727,208.713 261.720,211.697 263.693 M232.744 265.617 C 232.343 266.099,232.338 266.479,232.712 267.730 C 233.180 269.290,233.567 269.715,238.756 274.364 L 241.597 276.909 238.763 271.455 C 237.205 268.455,235.818 265.880,235.681 265.734 C 235.095 265.108,233.228 265.034,232.744 265.617 M228.836 272.692 C 235.046 277.627,238.336 281.899,238.387 285.091 C 238.414 286.823,238.812 287.894,241.360 293.091 C 242.978 296.391,245.071 301.055,246.010 303.455 C 247.109 306.263,248.156 308.305,248.950 309.183 C 250.168 310.532,250.182 310.587,250.182 314.001 C 250.182 317.915,250.031 318.058,248.179 315.909 C 246.101 313.498,245.714 312.532,245.973 310.404 C 246.146 308.980,246.019 308.078,245.430 306.545 C 245.007 305.445,244.447 303.891,244.184 303.091 C 242.149 296.888,237.374 287.756,236.009 287.456 C 234.459 287.116,233.518 285.735,229.399 277.765 C 224.948 269.151,225.003 269.647,228.836 272.692 M224.915 274.331 C 226.971 276.397,227.751 277.699,230.328 283.370 C 232.025 287.103,233.443 288.962,235.456 290.088 C 236.379 290.605,235.879 291.141,234.227 291.405 C 230.559 291.992,228.229 290.162,226.778 285.556 C 225.428 281.269,224.939 280.225,223.771 279.143 C 221.959 277.462,220.524 278.004,220.115 280.525 C 219.833 282.261,218.862 281.505,217.986 278.867 C 216.119 273.245,220.790 270.186,224.915 274.331 M206.954 283.861 L 207.948 284.814 209.030 284.043 C 212.681 281.443,218.144 285.551,217.215 290.198 C 216.562 293.462,212.899 294.076,212.139 291.049 C 211.849 289.893,212.108 289.653,213.026 290.226 C 214.888 291.389,215.571 288.606,213.846 286.881 C 210.691 283.726,206.880 288.067,209.193 292.182 C 210.543 294.583,211.666 294.925,218.000 294.867 C 224.536 294.808,225.922 295.147,228.456 297.425 C 231.566 300.221,232.722 305.426,231.000 308.885 C 230.217 310.459,229.242 310.670,229.631 309.182 C 230.637 305.332,230.098 301.974,228.102 299.642 C 225.550 296.660,223.362 296.352,216.223 297.972 C 209.523 299.492,207.373 299.265,205.463 296.838 C 204.657 295.813,204.877 295.291,206.324 294.798 C 206.546 294.722,206.208 294.222,205.574 293.685 C 202.750 291.299,202.395 288.457,204.946 288.677 C 206.181 288.783,206.220 288.751,205.807 287.980 C 204.023 284.645,204.813 281.810,206.954 283.861 M218.490 284.582 C 221.808 287.422,221.563 292.727,218.114 292.727 C 217.315 292.727,217.317 292.780,218.038 291.055 C 218.790 289.256,218.484 286.857,217.269 285.020 C 215.791 282.787,216.215 282.635,218.490 284.582 M246.272 288.273 C 250.418 294.856,250.763 297.171,247.995 299.823 C 246.701 301.063,246.971 301.308,244.983 297.091 C 243.082 293.059,242.715 291.077,243.285 287.933 C 243.941 284.316,243.769 284.297,246.272 288.273 M237.748 293.733 C 239.330 294.458,240.445 295.983,241.662 299.091 C 242.211 300.491,242.824 301.849,243.026 302.109 C 243.629 302.887,242.425 303.720,240.418 303.913 C 237.930 304.152,237.240 303.378,235.477 298.364 C 234.704 296.164,233.918 294.166,233.731 293.925 C 232.788 292.706,235.250 292.589,237.748 293.733 M224.545 299.768 C 226.486 300.677,229.611 303.452,229.286 303.978 C 229.179 304.152,227.804 304.207,226.232 304.099 C 221.707 303.789,217.723 305.046,214.273 307.873 C 212.592 309.250,212.441 309.138,213.278 307.135 L 213.828 305.818 212.823 305.813 C 210.751 305.801,210.707 305.259,212.656 303.769 C 213.829 302.873,214.437 302.157,214.335 301.793 C 214.226 301.404,214.704 300.959,215.840 300.392 C 219.318 298.654,221.791 298.477,224.545 299.768 M239.358 309.727 C 235.919 313.078,233.466 316.471,233.458 317.888 C 233.452 318.916,232.756 319.007,232.315 318.037 C 231.914 317.158,231.860 317.145,230.825 317.680 C 229.427 318.403,229.186 318.099,229.926 316.547 C 230.257 315.853,230.434 315.041,230.319 314.743 C 229.376 312.284,237.413 306.293,241.771 306.206 C 242.992 306.182,242.981 306.198,239.358 309.727 M245.415 310.256 C 245.031 310.973,245.128 312.669,245.654 314.430 C 245.865 315.139,245.740 315.237,244.491 315.340 C 243.290 315.438,243.075 315.589,242.981 316.400 C 242.784 318.099,240.853 319.971,240.185 319.112 C 238.705 317.209,239.816 314.013,242.976 311.087 C 245.105 309.116,246.230 308.733,245.415 310.256 M246.994 317.364 C 247.331 320.154,246.132 322.182,244.147 322.182 C 242.651 322.182,242.211 321.537,243.182 320.768 C 243.589 320.446,244.040 319.773,244.185 319.273 C 245.047 316.282,246.726 315.141,246.994 317.364 M253.533 317.402 C 254.190 317.974,255.201 318.686,255.780 318.986 L 256.833 319.530 256.053 320.311 C 255.001 321.362,253.266 321.343,252.595 320.273 C 251.724 318.884,251.489 316.364,252.230 316.364 C 252.289 316.364,252.876 316.831,253.533 317.402 M249.459 318.636 C 250.778 320.800,250.085 322.963,247.909 323.478 C 246.895 323.718,246.422 322.889,247.273 322.364 C 247.473 322.240,247.636 321.085,247.636 319.797 C 247.636 317.072,248.262 316.673,249.459 318.636 M252.915 321.727 C 254.019 322.982,254.065 324.206,253.029 324.761 C 251.953 325.336,251.273 324.381,251.273 322.294 C 251.273 320.476,251.687 320.333,252.915 321.727 M226.763 332.922 C 226.890 333.430,226.925 334.810,226.839 335.989 C 226.703 337.875,226.769 338.156,227.387 338.317 C 227.969 338.469,228.039 338.677,227.793 339.523 C 227.512 340.489,227.490 341.743,227.718 343.818 C 227.841 344.931,227.653 344.957,229.655 343.546 C 231.215 342.446,231.364 342.408,231.797 343.000 C 232.053 343.350,232.602 343.636,233.019 343.636 C 233.981 343.636,234.368 344.247,233.822 344.905 C 233.489 345.306,233.559 345.514,234.154 345.885 C 235.014 346.422,235.130 347.101,234.435 347.527 C 234.175 347.687,233.686 348.555,233.349 349.455 C 232.549 351.591,231.545 352.262,230.333 351.468 C 229.052 350.629,229.330 347.577,230.737 347.037 C 231.599 346.706,231.813 347.172,231.269 348.190 C 230.586 349.466,231.398 350.389,232.222 349.273 C 232.946 348.292,232.719 346.560,231.784 345.944 C 230.524 345.112,229.322 346.393,228.198 349.771 C 226.800 353.967,226.197 354.412,222.717 353.816 C 221.113 353.542,219.570 353.039,219.030 352.614 L 218.102 351.884 218.360 347.751 C 218.641 343.258,218.437 342.545,216.873 342.545 C 215.841 342.545,214.804 343.973,214.972 345.161 C 215.157 346.463,216.162 346.203,216.296 344.818 C 216.432 343.406,217.336 343.217,217.666 344.532 C 218.218 346.734,215.947 349.087,214.518 347.793 C 213.401 346.782,213.629 341.880,214.807 341.584 C 215.293 341.462,215.636 341.100,215.636 340.709 C 215.636 339.787,216.204 339.525,217.130 340.021 C 217.735 340.345,217.976 340.333,218.200 339.970 C 218.642 339.256,219.481 340.114,220.212 342.029 C 220.763 343.471,221.455 344.179,221.455 343.301 C 221.455 343.116,221.861 342.482,222.358 341.891 C 223.033 341.089,223.240 340.461,223.176 339.409 C 223.101 338.168,223.183 338.009,223.862 338.078 C 224.571 338.150,224.647 337.943,224.804 335.502 C 225.027 332.022,226.162 330.528,226.763 332.922 M202.113 345.630 L 202.524 346.533 203.427 345.630 C 204.700 344.358,206.283 344.380,205.960 345.666 C 205.765 346.443,205.949 346.790,207.030 347.681 C 210.851 350.830,207.627 356.615,203.299 354.377 C 201.968 353.689,201.663 352.837,202.364 351.767 C 203.041 350.733,203.636 350.654,203.636 351.597 C 203.636 352.605,204.634 352.820,205.463 351.992 C 206.990 350.465,206.012 348.364,203.776 348.364 C 199.899 348.364,199.539 351.921,202.893 357.110 C 205.010 360.386,205.354 361.751,204.576 363.789 C 203.520 366.553,199.910 369.066,196.970 369.083 C 195.034 369.094,195.417 368.449,197.828 367.637 C 203.391 365.763,204.021 362.106,199.779 356.319 C 196.480 351.818,196.207 351.213,196.743 349.589 C 197.216 348.156,197.674 347.791,198.322 348.329 C 198.880 348.793,199.273 348.493,199.273 347.604 C 199.273 346.949,200.938 344.727,201.429 344.727 C 201.579 344.727,201.887 345.134,202.113 345.630 M195.148 355.252 C 195.642 355.641,196.260 355.878,196.520 355.778 C 197.164 355.531,199.896 358.699,200.189 360.032 C 200.515 361.516,200.101 363.642,199.199 365.121 C 198.346 366.520,198.220 366.396,197.469 363.420 C 196.973 361.455,195.262 359.143,193.257 357.730 C 191.395 356.417,191.211 355.928,192.636 356.077 C 193.489 356.166,193.620 356.061,193.523 355.364 C 193.383 354.358,193.961 354.319,195.148 355.252 M206.110 367.206 C 206.293 370.331,201.804 374.618,200.341 372.714 C 199.016 370.990,199.376 370.104,202.455 367.513 C 205.749 364.740,205.964 364.722,206.110 367.206 M195.636 373.636 C 196.136 373.922,196.709 374.156,196.909 374.156 C 197.109 374.156,196.864 373.922,196.364 373.636 C 195.864 373.351,195.291 373.117,195.091 373.117 C 194.891 373.117,195.136 373.351,195.636 373.636 " stroke="none" fill="#d6d3cf" fill-rule="evenodd"></path><path id="path1" d="M29.091 0.541 C 14.696 3.436,3.286 14.956,0.512 29.396 C -0.257 33.403,-0.257 366.597,0.512 370.604 C 3.113 384.144,13.587 395.406,26.909 398.987 L 30.000 399.818 200.000 399.818 L 370.000 399.818 373.091 398.987 C 385.288 395.709,395.456 385.612,398.986 373.273 L 399.818 370.364 399.928 201.636 C 400.010 75.337,399.931 32.228,399.617 30.201 C 397.517 16.665,386.913 4.917,373.273 1.014 L 370.364 0.182 200.909 0.124 C 62.677 0.077,31.019 0.154,29.091 0.541 M216.545 30.884 C 220.671 32.501,230.833 36.127,235.636 37.695 C 240.981 39.439,246.049 40.676,249.360 41.044 C 256.723 41.862,259.582 45.519,272.564 70.727 C 287.574 99.873,285.198 131.931,265.032 172.363 C 260.171 182.109,254.321 193.171,245.704 208.909 C 242.651 214.486,241.956 215.752,240.862 217.727 C 235.125 228.090,225.700 245.657,225.710 245.967 C 225.717 246.185,227.398 249.473,229.445 253.273 C 234.916 263.427,236.067 265.581,238.383 270.000 C 241.942 276.791,249.337 291.697,250.331 294.082 C 250.850 295.327,251.661 297.209,252.134 298.264 C 262.356 321.088,261.765 349.978,250.782 364.337 C 248.358 367.506,241.120 372.364,238.821 372.364 C 238.550 372.364,238.172 372.511,237.982 372.691 C 236.917 373.700,231.454 375.600,225.091 377.174 C 216.322 379.344,203.707 377.986,195.455 373.986 L 192.909 372.752 189.455 373.320 C 176.268 375.488,162.433 368.098,155.481 355.174 C 148.887 342.914,148.432 322.285,154.263 300.000 C 154.656 298.500,155.134 296.618,155.326 295.818 C 156.317 291.695,159.968 280.400,162.380 274.000 C 162.907 272.600,163.469 271.045,163.628 270.545 C 164.145 268.926,169.310 256.345,171.990 250.182 C 173.842 245.923,174.502 244.024,174.264 243.636 C 174.080 243.336,171.999 239.736,169.639 235.636 C 167.279 231.536,164.118 226.055,162.614 223.455 C 139.968 184.295,126.560 154.131,121.296 130.501 C 114.571 100.316,129.204 58.269,149.704 48.874 C 152.170 47.743,152.475 47.465,155.114 43.929 C 160.202 37.113,163.018 35.582,172.727 34.349 C 177.300 33.769,182.032 32.988,189.091 31.649 C 191.191 31.250,194.382 30.670,196.182 30.360 C 197.982 30.050,200.027 29.650,200.727 29.472 C 204.443 28.526,212.326 29.229,216.545 30.884 M182.727 76.778 C 178.430 77.322,171.647 79.662,170.439 81.017 C 169.659 81.892,166.420 89.772,165.327 93.455 C 162.061 104.458,162.326 114.980,166.327 133.091 C 169.038 145.362,173.504 156.178,182.766 172.909 C 184.316 175.709,186.087 178.914,186.701 180.032 C 189.030 184.267,198.372 199.989,198.564 199.994 C 198.674 199.997,199.107 199.223,199.526 198.273 C 199.945 197.323,201.796 193.191,203.641 189.091 C 222.716 146.686,229.190 116.183,222.744 99.091 C 216.795 83.319,200.932 74.473,182.727 76.778 " stroke="none" fill="#043444" fill-rule="evenodd"></path><path id="path2" d="M141.818 81.431 C 131.713 84.516,129.545 98.126,138.209 104.084 C 148.298 111.021,161.607 100.703,157.313 89.273 C 156.528 87.183,155.009 84.986,154.547 85.272 C 154.374 85.379,154.129 85.300,154.004 85.097 C 153.878 84.894,153.971 84.727,154.209 84.727 C 154.448 84.727,154.214 84.389,153.689 83.976 C 153.164 83.563,152.544 83.343,152.311 83.487 C 152.054 83.646,151.985 83.591,152.136 83.347 C 152.443 82.850,151.048 82.053,150.482 82.403 C 150.236 82.555,150.169 82.496,150.317 82.258 C 150.891 81.328,144.265 80.684,141.818 81.431 M149.000 85.260 C 151.245 86.305,151.357 86.707,149.633 87.529 C 147.994 88.311,146.687 87.892,145.563 86.223 C 144.155 84.134,145.669 83.709,149.000 85.260 M141.455 87.115 C 141.455 88.877,140.898 89.784,139.446 90.391 C 136.510 91.617,136.447 89.056,139.356 86.763 C 140.986 85.479,141.455 85.557,141.455 87.115 M147.327 90.755 L 149.174 91.691 149.018 93.856 C 148.825 96.519,148.375 96.998,145.787 97.302 L 143.756 97.541 142.844 95.952 C 141.370 93.383,141.373 93.286,142.962 91.481 C 144.665 89.546,144.873 89.511,147.327 90.755 M154.364 94.081 C 154.364 96.994,153.901 97.914,152.868 97.057 C 151.802 96.173,151.194 94.286,151.675 93.355 C 153.242 90.324,154.364 90.626,154.364 94.081 M139.664 96.699 C 140.827 97.862,141.130 99.940,140.243 100.676 C 139.444 101.339,135.999 96.885,136.581 95.942 C 136.994 95.275,138.646 95.681,139.664 96.699 M149.309 100.223 C 149.989 100.546,150.545 100.963,150.545 101.150 C 150.545 102.159,145.115 103.467,144.572 102.588 C 144.300 102.148,145.746 100.373,146.687 99.993 C 147.773 99.554,147.926 99.567,149.309 100.223 M141.798 114.443 C 140.709 115.577,140.105 116.290,140.455 116.027 C 141.004 115.613,141.095 115.640,141.122 116.228 C 141.139 116.603,141.780 117.448,142.548 118.107 L 143.943 119.306 145.250 117.999 C 145.969 117.280,146.716 116.790,146.911 116.910 C 147.110 117.033,147.170 116.883,147.048 116.564 C 146.918 116.227,147.030 115.996,147.325 115.989 C 147.876 115.977,146.592 115.116,146.000 115.100 C 145.800 115.095,145.629 114.845,145.620 114.545 C 145.611 114.245,145.394 114.045,145.138 114.100 C 144.882 114.155,144.763 114.054,144.873 113.876 C 144.984 113.698,144.782 113.288,144.426 112.965 C 143.820 112.417,143.649 112.513,141.798 114.443 M143.182 119.640 L 144.000 120.525 144.818 119.640 L 145.636 118.754 144.818 119.433 C 144.019 120.097,143.981 120.097,143.182 119.433 L 142.364 118.754 143.182 119.640 M198.909 242.560 C 198.909 243.228,200.259 245.605,201.235 246.655 C 202.225 247.720,202.434 248.529,201.818 248.909 C 201.190 249.297,201.409 249.607,203.039 250.636 C 204.800 251.749,205.818 251.915,205.818 251.091 C 205.818 250.791,206.054 250.545,206.342 250.545 C 207.293 250.545,207.285 249.910,206.312 248.034 C 205.352 246.184,204.969 245.861,204.545 246.545 C 204.143 247.196,203.399 246.930,202.966 245.979 C 202.713 245.424,202.374 245.154,202.124 245.308 C 201.855 245.475,201.805 245.406,201.985 245.116 C 202.158 244.836,201.806 244.193,201.060 243.423 C 199.878 242.204,198.909 241.815,198.909 242.560 M211.909 246.059 C 212.159 246.160,212.364 246.410,212.364 246.615 C 212.364 246.819,212.110 246.889,211.799 246.770 C 211.489 246.651,211.304 246.675,211.387 246.822 C 211.471 246.970,211.825 247.703,212.174 248.451 C 212.522 249.200,212.951 249.723,213.127 249.614 C 213.302 249.506,213.349 249.671,213.230 249.981 C 213.111 250.292,213.176 250.545,213.375 250.545 C 213.927 250.545,214.264 248.106,213.825 247.286 C 213.441 246.568,212.322 245.792,211.751 245.847 C 211.588 245.863,211.659 245.958,211.909 246.059 M219.886 248.289 C 219.549 248.662,219.273 249.158,219.273 249.392 C 219.273 249.953,218.455 249.937,217.838 249.364 C 217.507 249.057,217.426 249.049,217.589 249.339 C 217.722 249.575,217.676 249.863,217.487 249.980 C 216.914 250.334,217.607 252.020,220.132 256.418 C 222.891 261.223,223.761 263.402,223.485 264.818 C 223.244 266.060,223.726 266.109,224.504 264.922 C 225.569 263.295,225.260 261.757,223.364 259.258 C 220.259 255.167,220.006 254.767,219.787 253.597 C 219.159 250.251,223.600 249.493,225.241 252.665 C 226.056 254.241,225.266 255.271,223.767 254.588 C 223.195 254.328,222.664 254.144,222.586 254.179 C 222.508 254.215,222.306 254.025,222.137 253.758 C 221.932 253.435,221.827 253.416,221.824 253.701 C 221.816 254.318,222.905 255.318,223.311 255.067 C 223.500 254.951,223.609 255.072,223.554 255.337 C 223.423 255.971,225.334 256.189,226.022 255.618 C 226.953 254.846,226.661 252.861,225.424 251.551 C 224.807 250.898,224.423 250.593,224.571 250.874 C 224.730 251.176,224.693 251.294,224.480 251.163 C 224.283 251.041,224.194 250.443,224.284 249.834 C 224.461 248.624,223.527 248.264,222.591 249.182 C 222.219 249.547,221.967 249.437,221.313 248.624 C 220.524 247.643,220.479 247.633,219.886 248.289 M209.229 249.983 C 208.976 250.642,209.386 251.358,209.852 251.070 C 210.043 250.952,210.155 251.072,210.100 251.337 C 210.045 251.601,210.205 251.777,210.455 251.727 C 210.705 251.677,210.868 251.841,210.818 252.091 C 210.768 252.341,210.964 252.545,211.253 252.545 C 211.797 252.545,212.489 253.055,215.045 255.336 C 217.217 257.274,216.419 257.440,214.081 255.536 C 209.712 251.978,208.204 253.230,211.647 257.555 C 212.441 258.552,213.091 259.510,213.091 259.684 C 213.091 260.220,212.508 260.035,211.826 259.281 C 211.468 258.886,211.008 258.666,210.804 258.792 C 210.587 258.926,210.545 258.841,210.702 258.586 C 211.016 258.078,210.251 257.006,209.781 257.296 C 209.606 257.404,209.553 257.256,209.664 256.968 C 209.912 256.322,207.265 253.455,206.420 253.455 C 205.003 253.455,205.764 255.210,207.849 256.750 C 209.040 257.630,210.034 258.693,210.253 259.321 C 210.491 260.003,211.411 260.924,212.788 261.859 C 213.977 262.667,215.118 263.697,215.324 264.149 C 216.169 266.004,219.635 266.862,220.853 265.517 C 221.967 264.286,221.649 261.756,220.156 259.969 C 219.441 259.114,218.558 257.830,218.193 257.116 C 217.300 255.370,215.817 253.822,215.017 253.801 C 214.658 253.792,213.873 253.157,213.273 252.391 C 211.482 250.104,209.610 248.989,209.229 249.983 M202.910 257.635 C 201.649 259.154,203.934 260.090,206.372 259.053 L 207.818 258.438 206.598 257.930 C 204.501 257.056,203.460 256.973,202.910 257.635 M205.461 261.830 C 205.807 262.476,205.719 262.618,204.776 262.947 C 203.320 263.454,203.092 264.228,204.186 264.946 C 204.893 265.409,205.003 265.666,204.720 266.195 C 204.185 267.195,204.290 268.000,204.956 268.000 C 205.282 268.000,206.182 268.573,206.957 269.273 C 208.422 270.596,210.008 270.938,210.836 270.109 C 211.336 269.610,211.440 267.490,210.950 267.793 C 210.773 267.902,210.650 267.708,210.677 267.360 C 210.705 267.010,210.512 266.772,210.246 266.827 C 209.981 266.882,209.863 266.768,209.983 266.573 C 210.331 266.009,208.737 265.299,208.240 265.796 C 207.937 266.100,208.029 266.258,208.598 266.406 C 210.255 266.840,210.657 269.455,209.066 269.455 C 206.972 269.455,205.335 265.607,206.847 264.238 C 208.387 262.845,209.741 263.391,214.077 267.156 C 217.103 269.784,218.108 270.161,219.857 269.328 C 221.479 268.554,221.423 268.000,219.724 268.000 C 218.177 268.000,215.816 266.852,212.462 264.467 C 211.165 263.544,210.015 262.969,209.770 263.121 C 209.516 263.278,209.439 263.229,209.580 263.001 C 209.913 262.461,207.452 261.091,206.148 261.091 C 205.172 261.091,205.104 261.164,205.461 261.830 M228.000 262.909 C 225.838 265.071,227.380 268.142,234.045 274.943 C 239.386 280.393,240.704 282.307,240.719 284.636 C 240.735 286.910,241.945 285.430,242.400 282.580 C 242.950 279.140,241.239 276.311,236.226 272.372 C 231.794 268.889,230.605 263.998,234.423 264.957 C 235.782 265.297,235.235 264.554,233.158 263.237 C 231.140 261.957,229.083 261.826,228.000 262.909 M212.364 264.959 C 212.364 265.059,211.873 264.791,211.273 264.364 C 210.673 263.936,210.182 263.505,210.182 263.405 C 210.182 263.305,210.673 263.573,211.273 264.000 C 211.873 264.427,212.364 264.859,212.364 264.959 M226.182 271.117 C 226.182 271.259,226.637 272.129,227.194 273.051 C 227.751 273.973,229.300 276.936,230.638 279.636 C 233.404 285.223,234.767 287.081,236.325 287.392 C 237.769 287.681,241.304 294.699,244.908 304.430 C 246.290 308.161,246.458 308.935,246.293 310.793 C 246.098 312.975,248.312 317.091,249.680 317.091 C 250.911 317.091,250.114 310.699,248.695 309.199 C 247.977 308.439,247.097 307.000,246.738 306.000 C 245.329 302.066,241.995 294.526,239.960 290.668 C 238.238 287.405,237.880 286.443,238.131 285.762 C 238.817 283.909,237.107 280.799,233.333 277.034 C 230.605 274.312,226.182 270.653,226.182 271.117 M219.580 273.184 C 217.633 274.829,217.318 276.886,218.592 279.636 C 219.338 281.246,219.356 281.258,219.712 280.364 C 220.429 278.564,220.638 278.362,221.892 278.254 C 223.640 278.103,225.006 279.718,226.303 283.472 C 228.505 289.840,229.630 291.099,233.101 291.078 C 235.169 291.066,236.347 290.634,235.312 290.266 C 234.162 289.858,231.964 287.448,231.143 285.695 C 227.770 278.494,226.806 276.711,225.449 275.170 C 222.945 272.327,221.266 271.758,219.580 273.184 M205.302 284.195 C 205.047 285.212,205.633 287.843,206.192 288.188 C 207.080 288.737,206.464 289.176,205.067 288.988 C 202.611 288.659,202.981 291.074,205.761 293.515 C 206.485 294.151,206.899 294.731,206.681 294.803 C 204.974 295.372,204.875 295.961,206.267 297.269 C 208.130 299.019,209.950 299.074,216.727 297.582 C 223.226 296.152,225.209 296.376,227.730 298.825 C 230.170 301.196,231.129 305.165,230.019 308.308 C 229.341 310.230,229.961 310.670,230.759 308.833 C 234.235 300.831,229.128 295.084,218.651 295.211 C 212.170 295.289,210.420 294.822,209.102 292.661 C 206.470 288.347,210.344 283.335,213.873 286.489 C 215.776 288.189,215.149 291.647,213.133 290.568 C 212.471 290.214,212.364 290.256,212.364 290.870 C 212.364 291.791,213.305 292.727,214.232 292.727 C 218.425 292.727,217.494 284.853,213.158 283.649 C 211.217 283.110,210.799 283.170,209.275 284.204 L 207.903 285.134 206.932 284.204 C 205.726 283.048,205.590 283.048,205.302 284.195 M217.836 285.670 C 219.041 287.960,219.162 289.236,218.359 291.158 C 217.609 292.954,217.919 293.063,219.442 291.539 C 221.269 289.713,221.254 287.858,219.395 285.800 C 217.172 283.339,216.584 283.290,217.836 285.670 M243.751 286.781 C 242.938 290.626,244.502 297.624,246.779 300.331 C 247.394 301.062,249.455 297.591,249.455 295.826 C 249.455 294.240,245.852 287.185,244.198 285.531 C 244.115 285.448,243.914 286.011,243.751 286.781 M233.818 293.256 C 233.818 293.391,234.131 294.268,234.514 295.205 C 234.897 296.142,235.652 298.136,236.191 299.636 C 237.554 303.430,240.021 304.849,242.324 303.165 C 243.014 302.660,240.911 296.882,239.449 295.266 C 238.401 294.108,233.818 292.472,233.818 293.256 M218.545 299.487 C 215.907 300.427,214.552 301.265,214.736 301.845 C 214.874 302.280,214.564 302.700,213.716 303.224 C 211.337 304.694,210.933 305.455,212.531 305.455 C 213.987 305.455,214.088 305.788,213.247 307.818 C 212.953 308.526,212.969 308.528,213.836 307.905 C 216.697 305.848,217.525 305.373,219.478 304.667 C 221.170 304.056,222.445 303.890,225.378 303.899 C 229.110 303.910,229.119 303.908,228.618 303.137 C 226.915 300.515,221.335 298.493,218.545 299.487 M250.591 300.943 C 248.825 302.950,248.944 303.172,251.306 302.272 L 252.975 301.636 252.561 300.407 L 252.146 299.177 250.591 300.943 M251.455 306.223 C 248.951 306.795,248.804 306.909,249.857 307.467 C 250.948 308.044,251.778 309.201,252.131 310.636 C 252.447 311.919,252.875 311.899,253.870 310.553 C 254.485 309.721,254.783 309.562,255.154 309.870 C 255.819 310.423,255.788 309.665,255.057 307.519 C 254.424 305.662,254.225 305.591,251.455 306.223 M237.597 307.607 C 234.080 309.235,230.030 313.341,230.430 314.872 C 230.528 315.246,230.344 316.061,230.022 316.685 C 229.352 317.981,229.817 318.215,231.175 317.264 C 231.916 316.745,231.999 316.770,232.463 317.655 L 232.959 318.602 233.381 317.210 C 233.979 315.241,237.238 311.085,239.879 308.925 C 241.112 307.916,242.135 306.968,242.152 306.818 C 242.220 306.204,239.676 306.645,237.597 307.607 M242.946 311.365 C 240.024 314.204,238.933 317.096,240.161 318.749 C 240.851 319.677,242.121 318.563,242.503 316.695 C 242.716 315.654,242.959 315.430,244.226 315.105 C 245.697 314.728,245.699 314.725,245.230 313.636 C 244.662 312.319,244.592 310.672,245.091 310.364 C 245.515 310.101,245.580 309.454,245.182 309.456 C 245.032 309.456,244.026 310.315,242.946 311.365 M252.376 313.727 C 252.397 314.206,254.341 316.824,254.963 317.212 C 255.793 317.730,257.461 316.639,257.216 315.739 C 256.910 314.617,252.331 312.714,252.376 313.727 M245.903 316.444 C 245.679 316.713,245.154 317.732,244.735 318.709 C 244.317 319.685,243.694 320.699,243.351 320.962 C 242.826 321.365,242.808 321.494,243.242 321.779 C 244.671 322.718,246.545 321.160,246.810 318.811 C 247.025 316.899,246.551 315.662,245.903 316.444 M252.000 317.613 C 252.000 320.151,253.770 321.682,255.440 320.589 C 256.389 319.967,256.669 319.273,255.970 319.273 C 255.754 319.273,254.878 318.700,254.024 318.000 C 252.179 316.489,252.000 316.454,252.000 317.613 M247.812 319.826 C 247.667 321.222,247.384 322.568,247.184 322.818 C 246.645 323.491,248.009 323.408,249.010 322.707 C 250.153 321.906,250.121 319.665,248.947 318.300 L 248.076 317.288 247.812 319.826 M251.531 321.456 C 251.259 322.493,251.934 324.727,252.518 324.727 C 253.528 324.727,253.899 323.757,253.320 322.636 C 252.481 321.015,251.769 320.545,251.531 321.456 M225.480 332.679 C 225.275 333.063,225.042 334.500,224.964 335.871 C 224.831 338.211,224.772 338.358,223.999 338.268 C 223.243 338.181,223.194 338.282,223.393 339.508 C 223.572 340.615,223.441 341.042,222.623 342.002 C 222.080 342.639,221.464 343.458,221.254 343.821 C 220.923 344.391,220.780 344.238,220.202 342.695 C 219.323 340.346,218.947 339.879,218.339 340.384 C 217.998 340.667,217.651 340.663,217.107 340.372 C 216.211 339.893,215.585 340.169,215.872 340.918 C 215.988 341.219,215.824 341.528,215.492 341.633 C 215.172 341.735,214.645 341.902,214.323 342.004 C 213.857 342.152,213.825 342.298,214.171 342.714 C 214.508 343.121,214.504 343.517,214.152 344.491 C 213.284 346.892,215.275 349.205,216.715 347.469 C 217.453 346.581,217.658 344.000,216.991 344.000 C 216.638 344.000,216.493 344.235,216.597 344.636 C 216.872 345.697,215.842 346.805,215.130 346.214 C 214.009 345.284,214.982 342.723,216.613 342.314 C 218.820 341.760,219.217 343.556,218.321 350.045 C 218.038 352.095,218.895 352.842,222.204 353.433 C 226.133 354.135,227.069 353.449,228.128 349.091 C 228.829 346.202,231.166 344.612,232.425 346.167 C 233.529 347.531,233.051 349.818,231.662 349.818 C 230.729 349.818,230.407 348.756,231.106 347.984 C 231.458 347.594,231.542 347.257,231.321 347.121 C 230.222 346.441,229.292 350.384,230.346 351.258 C 231.409 352.140,232.600 351.083,233.611 348.364 C 233.722 348.064,234.019 347.523,234.270 347.162 C 234.654 346.612,234.620 346.446,234.060 346.127 C 233.584 345.856,233.456 345.498,233.613 344.874 C 233.808 344.096,233.712 344.000,232.734 344.000 C 232.001 344.000,231.636 343.819,231.636 343.455 C 231.636 342.568,230.776 342.824,229.189 344.182 C 227.413 345.702,227.185 345.747,227.494 344.517 C 227.628 343.983,227.523 343.196,227.251 342.686 C 226.871 341.977,226.862 341.545,227.204 340.598 C 227.781 339.004,227.750 338.621,227.034 338.481 C 226.525 338.382,226.445 337.907,226.511 335.399 C 226.590 332.411,226.190 331.354,225.480 332.679 M204.545 345.149 C 204.145 345.369,203.554 345.879,203.232 346.281 C 202.568 347.111,201.818 346.854,201.818 345.797 C 201.818 344.324,200.311 345.545,199.596 347.597 C 199.245 348.602,199.049 348.750,198.312 348.565 C 195.866 347.951,196.404 351.379,199.381 355.374 C 204.374 362.076,203.740 366.644,197.640 367.911 C 196.260 368.198,195.399 369.091,196.502 369.091 C 202.719 369.091,206.355 362.826,203.051 357.808 C 199.936 353.078,199.544 350.876,201.493 349.055 C 204.139 346.583,208.239 349.318,205.804 351.931 C 204.869 352.935,203.632 352.970,203.378 352.000 C 203.112 350.983,202.604 351.094,202.319 352.232 C 201.771 354.413,206.090 355.519,207.610 353.587 C 209.036 351.774,208.464 348.646,206.493 347.481 C 205.567 346.935,205.445 346.690,205.644 345.785 C 205.894 344.647,205.682 344.524,204.545 345.149 M212.642 353.808 L 211.455 354.888 212.624 354.898 C 215.481 354.924,214.829 357.367,211.213 360.185 C 207.696 362.925,207.013 364.829,208.752 367.040 C 209.829 368.409,209.505 368.992,205.629 372.660 C 203.745 374.443,202.308 376.005,202.435 376.132 C 203.285 376.982,204.637 376.195,207.995 372.896 L 211.525 369.428 213.126 369.850 C 216.651 370.778,219.267 368.938,220.744 364.489 C 221.966 360.808,224.171 358.756,225.175 360.364 C 225.853 361.448,226.112 361.261,226.376 359.496 C 227.063 354.920,222.992 355.186,220.427 359.886 C 218.452 363.504,215.801 365.846,217.536 362.440 C 218.450 360.646,219.636 357.769,219.636 357.348 C 219.636 357.140,218.395 358.306,216.878 359.940 C 215.360 361.573,213.969 362.909,213.787 362.909 C 213.092 362.909,213.519 361.925,215.129 359.818 C 217.853 356.253,218.333 354.697,217.091 353.455 C 215.982 352.346,214.083 352.497,212.642 353.808 M193.806 355.614 C 194.236 356.417,193.821 356.845,192.942 356.508 C 192.624 356.386,192.364 356.456,192.364 356.664 C 192.364 356.872,192.678 357.142,193.063 357.264 C 194.820 357.821,198.170 362.939,198.178 365.078 C 198.183 366.268,198.994 365.460,199.589 363.673 C 200.577 360.704,198.050 354.556,196.484 356.122 C 196.363 356.243,195.811 356.020,195.258 355.626 C 193.931 354.681,193.304 354.676,193.806 355.614 M236.899 361.206 C 236.206 362.161,236.070 362.201,234.625 361.877 C 231.065 361.077,228.400 363.099,228.372 366.622 C 228.356 368.550,230.579 369.733,231.762 368.426 C 232.556 367.548,232.522 367.391,231.545 367.426 C 230.100 367.477,230.262 365.778,231.835 364.397 C 234.383 362.161,236.510 363.762,235.111 366.864 C 233.736 369.915,231.080 371.412,227.273 371.282 C 221.913 371.099,221.271 371.153,219.792 371.914 C 217.918 372.878,214.489 375.659,213.712 376.845 C 212.838 378.179,213.668 377.883,216.000 376.027 C 219.797 373.007,221.518 372.609,228.028 373.247 C 231.779 373.614,233.171 373.248,234.931 371.432 C 235.916 370.415,236.068 370.085,235.663 369.835 C 235.250 369.580,235.341 369.296,236.139 368.348 C 238.046 366.081,239.170 363.091,237.636 364.364 C 236.781 365.074,236.656 364.623,237.288 363.110 C 238.141 361.069,237.890 359.841,236.899 361.206 M202.636 367.672 C 199.791 370.051,199.448 370.874,200.673 372.387 L 201.346 373.218 202.449 372.433 C 204.815 370.747,205.818 369.208,205.818 367.260 C 205.818 365.007,205.826 365.006,202.636 367.672 M191.091 369.778 C 190.340 369.941,190.146 370.108,190.469 370.311 C 190.727 370.474,190.846 370.899,190.733 371.256 C 190.557 371.809,190.806 371.933,192.401 372.086 C 193.627 372.204,195.282 372.789,197.187 373.780 C 200.572 375.540,200.729 375.523,199.308 373.560 C 198.035 371.804,196.579 370.717,194.524 369.992 C 192.899 369.419,192.776 369.411,191.091 369.778 M214.364 372.248 C 212.105 372.755,210.958 373.375,209.077 375.104 C 206.759 377.235,206.846 377.439,210.067 377.450 C 211.487 377.454,211.731 377.295,213.704 375.067 C 216.492 371.918,216.528 371.762,214.364 372.248 M222.545 375.459 C 221.445 375.728,219.809 376.283,218.909 376.693 L 217.273 377.439 218.754 377.447 C 220.492 377.456,226.854 376.416,227.616 375.998 C 227.991 375.793,227.729 375.595,226.707 375.311 C 225.008 374.840,225.089 374.837,222.545 375.459 " stroke="none" fill="#a51d38" fill-rule="evenodd"></path><path id="path3" d="M249.182 41.342 C 249.532 41.433,250.105 41.433,250.455 41.342 C 250.805 41.250,250.518 41.175,249.818 41.175 C 249.118 41.175,248.832 41.250,249.182 41.342 M281.539 100.727 C 281.539 101.427,281.614 101.714,281.705 101.364 C 281.797 101.014,281.797 100.441,281.705 100.091 C 281.614 99.741,281.539 100.027,281.539 100.727 M120.092 104.182 C 120.096 104.982,120.170 105.266,120.257 104.814 C 120.344 104.362,120.341 103.707,120.250 103.359 C 120.159 103.012,120.088 103.382,120.092 104.182 M281.910 104.909 C 281.914 105.709,281.988 105.994,282.075 105.541 C 282.162 105.089,282.159 104.434,282.068 104.087 C 281.977 103.739,281.906 104.109,281.910 104.909 M119.740 109.273 C 119.743 110.273,119.814 110.639,119.897 110.086 C 119.981 109.533,119.979 108.715,119.892 108.268 C 119.806 107.820,119.738 108.273,119.740 109.273 M281.910 114.727 C 281.914 115.527,281.988 115.812,282.075 115.359 C 282.162 114.907,282.159 114.253,282.068 113.905 C 281.977 113.557,281.906 113.927,281.910 114.727 M119.745 116.000 C 119.745 117.100,119.814 117.550,119.897 117.000 C 119.980 116.450,119.980 115.550,119.897 115.000 C 119.814 114.450,119.745 114.900,119.745 116.000 M281.539 118.909 C 281.539 119.609,281.614 119.895,281.705 119.545 C 281.797 119.195,281.797 118.623,281.705 118.273 C 281.614 117.923,281.539 118.209,281.539 118.909 M120.084 121.091 C 120.084 121.791,120.159 122.077,120.251 121.727 C 120.342 121.377,120.342 120.805,120.251 120.455 C 120.159 120.105,120.084 120.391,120.084 121.091 M150.306 325.636 C 150.308 327.236,150.372 327.846,150.449 326.990 C 150.525 326.135,150.524 324.826,150.446 324.081 C 150.368 323.337,150.305 324.036,150.306 325.636 M259.414 332.182 C 259.415 334.782,259.473 335.798,259.543 334.439 C 259.613 333.081,259.612 330.954,259.542 329.712 C 259.471 328.470,259.413 329.582,259.414 332.182 M150.301 334.000 C 150.303 335.400,150.368 335.928,150.447 335.174 C 150.526 334.419,150.525 333.274,150.444 332.628 C 150.364 331.983,150.300 332.600,150.301 334.000 M161.818 363.818 C 162.497 364.518,163.134 365.091,163.234 365.091 C 163.334 365.091,162.860 364.518,162.182 363.818 C 161.503 363.118,160.866 362.545,160.766 362.545 C 160.666 362.545,161.140 363.118,161.818 363.818 " stroke="none" fill="#5c777c" fill-rule="evenodd"></path><path id="path4" d="M158.341 40.091 L 157.273 41.273 158.455 40.205 C 159.556 39.209,159.804 38.909,159.523 38.909 C 159.460 38.909,158.928 39.441,158.341 40.091 M141.818 54.727 C 140.935 55.627,140.294 56.364,140.394 56.364 C 140.494 56.364,141.299 55.627,142.182 54.727 C 143.065 53.827,143.706 53.091,143.606 53.091 C 143.506 53.091,142.701 53.827,141.818 54.727 M268.182 63.636 C 268.689 64.636,269.185 65.455,269.285 65.455 C 269.385 65.455,269.052 64.636,268.545 63.636 C 268.039 62.636,267.542 61.818,267.442 61.818 C 267.342 61.818,267.675 62.636,268.182 63.636 M194.545 66.927 C 190.455 67.373,185.155 68.549,185.533 68.927 C 185.633 69.027,187.252 68.872,189.130 68.582 C 194.311 67.782,200.480 67.549,204.364 68.006 C 206.264 68.230,208.636 68.492,209.636 68.589 C 233.896 70.941,248.644 98.465,243.126 131.091 C 240.955 143.930,231.449 171.466,226.493 179.273 C 225.327 181.109,227.493 165.733,229.474 158.102 C 233.077 144.226,233.861 140.840,234.544 136.195 C 238.212 111.229,223.709 83.528,203.636 77.160 C 198.365 75.488,189.888 74.956,184.545 75.962 C 183.000 76.253,183.191 76.276,185.818 76.116 C 206.059 74.881,222.560 87.913,225.198 107.217 C 227.464 123.802,220.846 150.582,206.089 184.545 C 203.892 189.602,199.659 198.791,198.988 199.961 C 198.793 200.301,200.235 203.047,203.348 208.267 C 205.907 212.556,208.000 216.141,208.000 216.233 C 208.000 216.326,209.497 218.970,211.326 222.110 C 213.156 225.249,215.454 229.209,216.433 230.909 C 217.413 232.609,218.508 234.387,218.867 234.860 L 219.520 235.719 223.271 229.769 C 225.334 226.496,228.147 222.060,229.523 219.911 L 232.025 216.003 230.762 212.274 C 227.351 202.198,227.240 201.154,229.138 196.957 C 241.947 168.620,248.869 142.354,248.843 122.182 C 248.804 92.641,236.027 73.405,213.091 68.358 C 211.991 68.116,210.315 67.688,209.366 67.407 C 207.186 66.761,198.612 66.483,194.545 66.927 M178.182 77.091 C 177.451 77.325,177.415 77.384,178.000 77.393 C 178.400 77.399,179.055 77.263,179.455 77.091 C 180.381 76.693,179.425 76.693,178.182 77.091 M154.266 93.818 C 154.266 94.518,154.341 94.805,154.432 94.455 C 154.524 94.105,154.524 93.532,154.432 93.182 C 154.341 92.832,154.266 93.118,154.266 93.818 M162.680 109.091 C 162.680 111.191,162.740 112.050,162.814 111.000 C 162.887 109.950,162.887 108.232,162.814 107.182 C 162.740 106.132,162.680 106.991,162.680 109.091 M281.949 109.818 C 281.949 111.718,282.011 112.495,282.085 111.545 C 282.160 110.595,282.160 109.041,282.085 108.091 C 282.011 107.141,281.949 107.918,281.949 109.818 M119.728 112.545 C 119.732 113.345,119.807 113.630,119.894 113.178 C 119.981 112.725,119.977 112.071,119.886 111.723 C 119.795 111.375,119.724 111.745,119.728 112.545 M177.231 252.455 C 177.010 253.105,175.419 257.439,173.697 262.087 C 170.502 270.706,170.066 271.964,166.862 281.818 C 157.381 310.983,155.210 333.433,160.799 344.506 C 162.600 348.074,166.729 352.379,167.747 351.750 C 167.949 351.625,168.000 351.705,167.862 351.930 C 167.500 352.514,170.390 353.909,171.384 353.630 C 171.962 353.468,172.042 353.503,171.674 353.758 C 170.832 354.340,175.080 355.031,177.894 354.770 C 180.540 354.524,183.871 353.382,183.732 352.769 C 183.683 352.557,183.909 352.491,184.246 352.620 C 184.681 352.787,184.765 352.718,184.549 352.369 C 184.347 352.042,184.391 351.974,184.687 352.157 C 185.376 352.583,189.773 349.050,189.953 347.927 C 190.058 347.267,190.885 345.916,190.898 346.382 C 190.904 346.592,190.786 346.923,190.636 347.117 C 190.486 347.311,190.649 347.163,190.998 346.788 C 191.347 346.413,191.539 345.955,191.426 345.771 C 191.312 345.587,191.422 345.481,191.670 345.536 C 193.863 346.022,198.541 330.622,198.544 322.909 C 198.548 312.264,193.089 282.237,191.551 284.442 C 191.331 284.757,191.292 284.668,191.431 284.166 C 191.694 283.220,187.455 270.606,187.020 271.041 C 186.939 271.121,187.477 272.765,188.215 274.694 C 188.954 276.622,189.444 278.314,189.304 278.453 C 188.953 278.804,188.564 278.086,187.808 275.690 C 187.452 274.560,186.940 273.121,186.671 272.490 C 186.402 271.860,186.182 271.165,186.182 270.945 C 186.182 270.725,185.991 270.545,185.758 270.545 C 185.524 270.545,185.428 270.450,185.545 270.334 C 185.661 270.218,185.525 269.568,185.242 268.891 C 184.638 267.447,184.582 266.776,185.090 267.090 C 185.579 267.393,185.224 266.534,182.643 261.177 C 181.461 258.724,180.357 256.843,180.189 256.995 C 180.021 257.148,179.992 257.083,180.125 256.851 C 180.514 256.170,179.981 255.097,179.551 255.697 C 179.296 256.054,179.261 256.007,179.419 255.519 C 179.630 254.868,178.312 251.273,177.862 251.273 C 177.736 251.273,177.452 251.805,177.231 252.455 M214.331 255.576 C 214.997 256.335,215.368 256.404,215.303 255.758 C 215.286 255.591,215.150 255.452,215.000 255.449 C 214.850 255.446,214.482 255.295,214.182 255.114 C 213.853 254.915,213.912 255.099,214.331 255.576 M186.026 269.091 C 186.157 269.591,186.409 270.155,186.586 270.345 C 187.105 270.901,186.946 270.104,186.336 269.091 L 185.788 268.182 186.026 269.091 M185.091 269.615 C 185.091 269.903,184.948 270.227,184.774 270.335 C 184.600 270.442,184.357 271.035,184.233 271.653 C 184.101 272.313,183.850 272.677,183.623 272.537 C 183.380 272.387,183.363 272.143,183.577 271.877 C 183.763 271.645,184.030 270.923,184.169 270.273 C 184.420 269.096,185.091 268.617,185.091 269.615 M241.656 277.727 C 241.943 278.277,242.178 278.941,242.180 279.203 C 242.181 279.465,242.340 279.582,242.533 279.462 C 242.912 279.228,241.884 276.727,241.409 276.727 C 241.258 276.727,241.369 277.177,241.656 277.727 M181.666 279.546 C 181.246 279.966,181.031 279.309,181.317 278.482 L 181.610 277.636 181.743 278.486 C 181.817 278.953,181.782 279.430,181.666 279.546 M180.925 281.681 C 180.789 282.406,180.525 283.306,180.339 283.681 C 180.152 284.057,179.836 284.689,179.636 285.086 C 179.436 285.483,179.273 286.160,179.273 286.589 C 179.273 287.715,178.484 290.182,178.124 290.182 C 177.696 290.182,177.741 289.182,178.182 288.909 C 178.382 288.785,178.545 288.375,178.545 287.997 C 178.545 287.450,179.533 283.922,180.555 280.818 C 180.885 279.815,181.156 280.447,180.925 281.681 M185.959 285.570 C 185.443 286.907,184.872 288.000,184.692 288.000 C 184.250 288.000,184.274 287.371,184.727 287.091 C 184.927 286.967,185.091 286.467,185.091 285.979 C 185.091 285.490,185.239 285.091,185.419 285.091 C 185.599 285.091,185.927 284.573,186.148 283.941 C 186.368 283.309,186.627 282.870,186.723 282.966 C 186.820 283.062,186.476 284.234,185.959 285.570 M184.538 289.000 C 184.392 289.350,183.980 290.536,183.623 291.636 C 183.121 293.183,182.913 293.484,182.707 292.963 C 182.560 292.593,182.598 292.184,182.792 292.054 C 182.986 291.924,183.358 291.041,183.620 290.091 C 183.881 289.141,184.254 288.364,184.450 288.364 C 184.647 288.364,184.687 288.646,184.538 289.000 M243.001 290.364 C 243.005 291.164,243.079 291.448,243.166 290.996 C 243.253 290.543,243.250 289.889,243.159 289.541 C 243.068 289.194,242.997 289.564,243.001 290.364 M178.182 291.818 C 178.182 292.318,178.018 292.727,177.818 292.727 C 177.618 292.727,177.455 292.318,177.455 291.818 C 177.455 291.318,177.618 290.909,177.818 290.909 C 178.018 290.909,178.182 291.318,178.182 291.818 M180.245 303.000 C 179.617 305.518,179.344 306.292,179.314 305.636 C 179.253 304.296,179.728 302.182,180.090 302.182 C 180.287 302.182,180.357 302.550,180.245 303.000 M230.274 305.273 C 230.278 306.073,230.352 306.357,230.439 305.905 C 230.526 305.453,230.523 304.798,230.432 304.450 C 230.341 304.103,230.269 304.473,230.274 305.273 M175.636 305.840 C 175.636 306.251,175.473 306.487,175.273 306.364 C 175.073 306.240,174.909 305.903,174.909 305.615 C 174.909 305.327,175.073 305.091,175.273 305.091 C 175.473 305.091,175.636 305.428,175.636 305.840 M179.273 307.615 C 179.273 308.203,179.093 308.796,178.872 308.932 C 178.652 309.068,178.560 309.617,178.667 310.152 C 178.774 310.687,178.711 311.363,178.527 311.653 C 178.119 312.299,178.068 310.753,178.413 308.233 C 178.669 306.366,179.273 305.932,179.273 307.615 M178.364 319.092 C 178.364 322.792,178.254 325.819,178.120 325.818 C 177.661 325.818,177.363 321.031,177.580 317.151 C 177.700 315.018,177.802 313.068,177.808 312.818 C 177.814 312.568,177.941 312.364,178.091 312.364 C 178.241 312.364,178.364 315.392,178.364 319.092 M178.803 327.613 C 178.705 328.972,178.182 328.649,178.182 327.230 C 178.182 326.628,178.338 326.235,178.530 326.354 C 178.721 326.472,178.844 327.039,178.803 327.613 M178.286 329.449 C 178.391 329.852,178.347 330.182,178.187 330.182 C 177.885 330.182,177.455 329.296,177.455 328.676 C 177.455 328.083,178.081 328.666,178.286 329.449 M150.274 330.000 C 150.278 330.800,150.352 331.084,150.439 330.632 C 150.526 330.180,150.523 329.525,150.432 329.178 C 150.341 328.830,150.269 329.200,150.274 330.000 M179.433 330.378 C 179.566 331.086,179.993 332.409,180.383 333.318 C 181.681 336.347,181.152 336.397,179.498 333.402 C 178.926 332.367,178.584 331.205,178.614 330.402 C 178.677 328.726,179.121 328.713,179.433 330.378 M218.630 345.091 C 218.630 345.791,218.705 346.077,218.796 345.727 C 218.888 345.377,218.888 344.805,218.796 344.455 C 218.705 344.105,218.630 344.391,218.630 345.091 M200.092 361.273 C 200.096 362.073,200.170 362.357,200.257 361.905 C 200.344 361.453,200.341 360.798,200.250 360.450 C 200.159 360.103,200.088 360.473,200.092 361.273 M161.818 363.455 C 163.107 364.755,164.243 365.818,164.343 365.818 C 164.443 365.818,163.470 364.755,162.182 363.455 C 160.893 362.155,159.757 361.091,159.657 361.091 C 159.557 361.091,160.530 362.155,161.818 363.455 M248.708 366.091 L 247.455 367.455 248.818 366.201 C 250.087 365.035,250.349 364.727,250.071 364.727 C 250.011 364.727,249.397 365.341,248.708 366.091 M235.865 368.675 C 235.292 369.308,235.295 369.381,235.900 369.839 C 236.448 370.255,236.478 370.252,236.096 369.824 C 235.736 369.419,235.765 369.188,236.243 368.660 C 236.571 368.297,236.758 368.000,236.658 368.000 C 236.558 368.000,236.201 368.304,235.865 368.675 M215.622 371.983 C 216.075 372.270,216.048 372.443,215.440 373.160 L 214.727 374.000 215.545 373.307 C 216.521 372.481,216.614 371.634,215.727 371.642 C 215.197 371.647,215.179 371.703,215.622 371.983 M214.526 375.545 L 213.273 376.909 214.636 375.656 C 215.906 374.490,216.167 374.182,215.890 374.182 C 215.829 374.182,215.215 374.795,214.526 375.545 " stroke="none" fill="#7c9495" fill-rule="evenodd"></path><path id="path5" d="M186.828 76.267 C 187.683 76.344,188.992 76.342,189.737 76.264 C 190.482 76.186,189.782 76.123,188.182 76.125 C 186.582 76.126,185.973 76.190,186.828 76.267 M225.554 112.000 C 225.554 112.900,225.625 113.268,225.711 112.818 C 225.798 112.368,225.798 111.632,225.711 111.182 C 225.625 110.732,225.554 111.100,225.554 112.000 M225.546 116.545 C 225.550 117.345,225.625 117.630,225.712 117.178 C 225.799 116.725,225.795 116.071,225.704 115.723 C 225.613 115.375,225.542 115.745,225.546 116.545 M184.739 267.193 C 184.732 267.450,184.959 268.214,185.242 268.891 C 185.525 269.568,185.661 270.218,185.545 270.334 C 185.428 270.450,185.524 270.545,185.758 270.545 C 185.991 270.545,186.182 270.725,186.182 270.945 C 186.182 271.165,186.402 271.860,186.671 272.490 C 186.940 273.121,187.452 274.560,187.808 275.690 C 188.562 278.079,188.953 278.804,189.301 278.457 C 189.586 278.172,187.007 271.012,186.321 270.182 C 185.866 269.632,185.818 269.482,185.818 268.615 C 185.818 267.982,184.754 266.580,184.739 267.193 M184.169 270.273 C 184.030 270.923,183.763 271.645,183.577 271.877 C 183.363 272.143,183.380 272.387,183.623 272.537 C 183.850 272.677,184.101 272.313,184.233 271.653 C 184.357 271.035,184.600 270.442,184.774 270.335 C 185.196 270.074,185.181 269.091,184.756 269.091 C 184.572 269.091,184.308 269.623,184.169 270.273 M181.317 278.482 C 181.156 278.947,181.121 279.424,181.240 279.543 C 181.616 279.920,181.881 279.364,181.743 278.486 L 181.610 277.636 181.317 278.482 M180.555 280.818 C 179.533 283.922,178.545 287.450,178.545 287.997 C 178.545 288.375,178.382 288.785,178.182 288.909 C 177.741 289.182,177.696 290.182,178.124 290.182 C 178.484 290.182,179.273 287.715,179.273 286.589 C 179.273 286.160,179.436 285.483,179.636 285.086 C 179.836 284.689,180.152 284.057,180.339 283.681 C 180.796 282.759,181.229 280.364,180.938 280.364 C 180.810 280.364,180.637 280.568,180.555 280.818 M186.148 283.941 C 185.927 284.573,185.599 285.091,185.419 285.091 C 185.239 285.091,185.091 285.490,185.091 285.979 C 185.091 286.467,184.927 286.967,184.727 287.091 C 184.274 287.371,184.250 288.000,184.692 288.000 C 185.066 288.000,186.990 283.233,186.723 282.966 C 186.627 282.870,186.368 283.309,186.148 283.941 M183.620 290.091 C 183.358 291.041,182.986 291.924,182.792 292.054 C 182.598 292.184,182.560 292.593,182.707 292.963 C 182.913 293.484,183.121 293.183,183.623 291.636 C 183.980 290.536,184.392 289.350,184.538 289.000 C 184.687 288.646,184.647 288.364,184.450 288.364 C 184.254 288.364,183.881 289.141,183.620 290.091 M177.455 291.818 C 177.455 292.318,177.618 292.727,177.818 292.727 C 178.018 292.727,178.182 292.318,178.182 291.818 C 178.182 291.318,178.018 290.909,177.818 290.909 C 177.618 290.909,177.455 291.318,177.455 291.818 M214.461 295.173 C 215.115 295.254,216.096 295.252,216.643 295.169 C 217.189 295.086,216.655 295.020,215.455 295.022 C 214.255 295.024,213.807 295.092,214.461 295.173 M179.506 303.545 C 179.171 305.572,179.292 306.566,179.694 305.091 C 180.396 302.515,180.441 302.182,180.090 302.182 C 179.893 302.182,179.630 302.795,179.506 303.545 M174.909 305.615 C 174.909 305.903,175.073 306.240,175.273 306.364 C 175.473 306.487,175.636 306.251,175.636 305.840 C 175.636 305.428,175.473 305.091,175.273 305.091 C 175.073 305.091,174.909 305.327,174.909 305.615 M178.413 308.233 C 178.068 310.753,178.119 312.299,178.527 311.653 C 178.711 311.363,178.774 310.687,178.667 310.152 C 178.560 309.617,178.652 309.068,178.872 308.932 C 179.343 308.641,179.418 306.545,178.959 306.545 C 178.786 306.545,178.540 307.305,178.413 308.233 M237.977 310.636 L 236.909 311.818 238.091 310.750 C 238.741 310.163,239.273 309.631,239.273 309.568 C 239.273 309.287,238.973 309.535,237.977 310.636 M177.808 312.818 C 177.802 313.068,177.700 315.018,177.580 317.151 C 177.363 321.031,177.661 325.818,178.120 325.818 C 178.254 325.819,178.364 322.792,178.364 319.092 C 178.364 315.392,178.241 312.364,178.091 312.364 C 177.941 312.364,177.814 312.568,177.808 312.818 M178.182 327.230 C 178.182 328.649,178.705 328.972,178.803 327.613 C 178.844 327.039,178.721 326.472,178.530 326.354 C 178.338 326.235,178.182 326.628,178.182 327.230 M177.455 328.676 C 177.455 329.296,177.885 330.182,178.187 330.182 C 178.552 330.182,178.206 328.785,177.774 328.518 C 177.598 328.410,177.455 328.481,177.455 328.676 M178.614 330.402 C 178.584 331.205,178.926 332.367,179.498 333.402 C 181.152 336.397,181.681 336.347,180.383 333.318 C 179.993 332.409,179.566 331.086,179.433 330.378 C 179.121 328.713,178.677 328.726,178.614 330.402 " stroke="none" fill="#788c94" fill-rule="evenodd"></path><path id="path6" d="M149.818 68.922 C 148.718 69.598,147.667 70.209,147.483 70.278 C 147.299 70.348,147.798 71.490,148.592 72.816 L 150.036 75.227 152.291 73.956 C 153.531 73.257,154.545 72.515,154.545 72.306 C 154.545 71.995,151.985 67.574,151.857 67.664 C 151.836 67.680,150.918 68.245,149.818 68.922 M140.770 115.772 L 139.959 116.635 141.883 118.318 C 144.224 120.366,143.884 120.379,145.982 118.163 C 148.191 115.831,147.892 115.362,145.635 117.619 L 143.946 119.308 142.549 118.109 C 141.085 116.851,140.798 116.075,141.527 115.345 C 141.767 115.105,141.878 114.909,141.772 114.909 C 141.667 114.909,141.216 115.298,140.770 115.772 M221.818 253.000 C 221.818 253.174,222.055 253.633,222.346 254.021 C 222.854 254.702,222.866 254.698,222.665 253.903 C 222.458 253.083,221.818 252.400,221.818 253.000 M210.182 263.405 C 210.182 263.505,210.673 263.936,211.273 264.364 C 211.873 264.791,212.364 265.059,212.364 264.959 C 212.364 264.859,211.873 264.427,211.273 264.000 C 210.673 263.573,210.182 263.305,210.182 263.405 M209.545 377.705 C 209.895 377.797,210.468 377.797,210.818 377.705 C 211.168 377.614,210.882 377.539,210.182 377.539 C 209.482 377.539,209.195 377.614,209.545 377.705 M217.727 377.711 C 218.177 377.798,218.914 377.798,219.364 377.711 C 219.814 377.625,219.445 377.554,218.545 377.554 C 217.645 377.554,217.277 377.625,217.727 377.711 " stroke="none" fill="#6c2032" fill-rule="evenodd"></path><path id="path7" d="M219.818 377.668 L 216.545 378.141 219.510 377.958 C 221.140 377.857,222.940 377.635,223.510 377.464 C 224.943 377.034,223.759 377.100,219.818 377.668 M208.000 377.837 C 210.194 378.227,211.914 378.193,210.000 377.797 C 209.200 377.632,208.055 377.508,207.455 377.521 C 206.636 377.539,206.773 377.618,208.000 377.837 " stroke="none" fill="#342c3c" fill-rule="evenodd"></path><path id="path8" d="M144.091 80.988 C 144.641 81.071,145.541 81.071,146.091 80.988 C 146.641 80.904,146.191 80.836,145.091 80.836 C 143.991 80.836,143.541 80.904,144.091 80.988 M143.253 91.182 L 142.000 92.545 143.364 91.292 C 144.114 90.603,144.727 89.989,144.727 89.929 C 144.727 89.651,144.420 89.913,143.253 91.182 M152.632 96.727 C 153.311 97.462,153.523 97.526,153.905 97.114 C 154.276 96.715,154.272 96.673,153.886 96.891 C 153.612 97.047,153.070 96.881,152.613 96.504 C 151.836 95.860,151.836 95.865,152.632 96.727 M154.162 102.818 L 152.909 104.182 154.273 102.929 C 155.023 102.239,155.636 101.626,155.636 101.565 C 155.636 101.287,155.329 101.549,154.162 102.818 M225.195 112.182 C 225.198 113.182,225.268 113.548,225.352 112.995 C 225.435 112.442,225.433 111.624,225.347 111.177 C 225.261 110.730,225.192 111.182,225.195 112.182 M141.457 114.361 C 139.825 116.014,139.570 116.437,139.978 116.815 C 140.376 117.185,140.417 117.179,140.192 116.783 C 140.006 116.456,140.559 115.639,141.853 114.328 C 142.920 113.248,143.712 112.364,143.612 112.364 C 143.512 112.364,142.542 113.262,141.457 114.361 M145.439 113.909 C 146.331 114.859,147.108 115.636,147.167 115.636 C 147.440 115.636,147.151 115.310,145.545 113.803 L 143.818 112.182 145.439 113.909 M225.200 116.364 C 225.200 117.464,225.268 117.914,225.351 117.364 C 225.435 116.814,225.435 115.914,225.351 115.364 C 225.268 114.814,225.200 115.264,225.200 116.364 M146.568 117.608 L 145.318 119.091 146.732 117.739 C 147.509 116.996,148.072 116.329,147.982 116.257 C 147.892 116.185,147.256 116.793,146.568 117.608 M142.182 119.091 C 142.860 119.791,143.497 120.364,143.597 120.364 C 143.697 120.364,143.224 119.791,142.545 119.091 C 141.867 118.391,141.230 117.818,141.130 117.818 C 141.030 117.818,141.503 118.391,142.182 119.091 M211.716 259.103 C 212.260 259.675,212.770 260.070,212.850 259.981 C 212.930 259.891,212.485 259.423,211.861 258.940 L 210.727 258.063 211.716 259.103 M218.095 295.166 C 218.547 295.253,219.202 295.250,219.550 295.159 C 219.897 295.068,219.527 294.997,218.727 295.001 C 217.927 295.005,217.643 295.079,218.095 295.166 M224.277 303.894 C 224.729 303.981,225.384 303.977,225.732 303.886 C 226.079 303.795,225.709 303.724,224.909 303.728 C 224.109 303.732,223.825 303.807,224.277 303.894 M244.812 311.636 C 244.812 312.336,244.886 312.623,244.978 312.273 C 245.069 311.923,245.069 311.350,244.978 311.000 C 244.886 310.650,244.812 310.936,244.812 311.636 M226.644 334.909 C 226.644 335.809,226.715 336.177,226.802 335.727 C 226.889 335.277,226.889 334.541,226.802 334.091 C 226.715 333.641,226.644 334.009,226.644 334.909 M223.301 340.335 C 223.286 340.619,222.992 341.192,222.650 341.608 C 222.063 342.320,222.075 342.319,222.875 341.583 C 223.341 341.154,223.634 340.581,223.526 340.311 C 223.367 339.912,223.325 339.916,223.301 340.335 M214.545 345.341 C 214.545 346.121,215.625 346.706,216.106 346.186 C 216.455 345.810,216.440 345.772,216.036 346.002 C 215.708 346.189,215.351 346.053,215.036 345.622 C 214.766 345.254,214.545 345.127,214.545 345.341 M216.006 360.540 C 214.628 361.934,213.950 362.399,213.751 362.085 C 213.550 361.770,213.464 361.825,213.460 362.273 C 213.451 363.292,213.891 363.042,216.182 360.727 C 217.369 359.527,218.259 358.545,218.158 358.545 C 218.057 358.545,217.089 359.443,216.006 360.540 M205.903 367.273 C 205.903 367.973,205.977 368.259,206.069 367.909 C 206.160 367.559,206.160 366.986,206.069 366.636 C 205.977 366.286,205.903 366.573,205.903 367.273 M208.899 372.091 L 206.364 374.727 208.909 372.315 C 210.309 370.988,211.700 369.815,212.000 369.707 C 212.478 369.536,212.477 369.508,211.990 369.483 C 211.685 369.467,210.294 370.641,208.899 372.091 M192.364 372.364 C 192.364 372.564,192.609 372.727,192.909 372.727 C 193.209 372.727,193.455 372.564,193.455 372.364 C 193.455 372.164,193.209 372.000,192.909 372.000 C 192.609 372.000,192.364 372.164,192.364 372.364 M200.818 372.916 C 201.444 373.599,201.465 373.599,202.091 372.916 C 202.697 372.255,202.697 372.244,202.091 372.701 C 201.564 373.097,201.345 373.097,200.818 372.701 C 200.212 372.244,200.212 372.255,200.818 372.916 M204.523 373.545 L 203.455 374.727 204.636 373.659 C 205.286 373.072,205.818 372.540,205.818 372.477 C 205.818 372.196,205.518 372.444,204.523 373.545 M222.822 372.984 C 223.275 373.071,223.929 373.068,224.277 372.977 C 224.625 372.886,224.255 372.815,223.455 372.819 C 222.655 372.823,222.370 372.897,222.822 372.984 M208.528 375.364 L 207.091 376.909 208.636 375.472 C 210.074 374.135,210.349 373.818,210.074 373.818 C 210.014 373.818,209.319 374.514,208.528 375.364 M202.348 375.298 C 202.216 375.512,201.756 375.829,201.326 376.002 C 200.794 376.217,200.730 376.325,201.125 376.341 C 201.444 376.353,202.002 376.036,202.364 375.636 C 202.726 375.236,202.924 374.909,202.805 374.909 C 202.686 374.909,202.480 375.084,202.348 375.298 M214.910 376.908 C 214.441 377.407,214.127 377.876,214.211 377.951 C 214.295 378.025,214.744 377.617,215.209 377.043 C 216.251 375.759,216.067 375.676,214.910 376.908 " stroke="none" fill="#6c5c6c" fill-rule="evenodd"></path></g></svg>