<svg id="svg" version="1.1" xmlns="http://www.w3.org/2000/svg" xmlns:xlink="http://www.w3.org/1999/xlink" width="400" height="400" viewBox="0, 0, 400,400"><g id="svgg"><path id="path0" d="M202.000 74.612 C 195.010 75.937,183.529 77.893,180.182 78.329 C 173.283 79.228,170.555 80.804,166.904 86.000 C 165.908 87.418,165.067 88.094,163.086 89.072 C 152.792 94.153,143.081 113.188,141.864 130.668 C 140.568 149.288,148.576 172.815,168.001 207.455 C 170.976 212.760,178.240 225.435,180.455 229.187 L 181.907 231.647 179.163 238.096 C 163.088 275.873,159.845 300.560,169.079 314.847 C 174.013 322.480,183.896 327.377,191.636 326.023 C 193.136 325.761,194.060 325.526,193.688 325.500 C 193.253 325.471,193.086 325.265,193.218 324.921 C 193.331 324.627,193.266 324.290,193.075 324.172 C 191.486 323.190,195.193 323.032,197.092 324.001 C 198.433 324.685,200.727 326.987,200.727 327.649 C 200.727 328.370,201.614 327.952,203.494 326.346 C 206.415 323.851,207.100 322.759,206.386 321.740 C 205.086 319.884,205.540 318.945,209.406 315.498 C 210.802 314.254,210.758 313.348,209.290 313.094 L 208.224 312.909 209.413 311.909 C 212.667 309.171,214.683 312.110,212.000 315.681 C 209.925 318.443,210.226 318.730,212.580 316.233 C 214.982 313.684,215.253 313.766,214.073 316.688 C 213.007 319.326,213.418 319.244,214.961 316.509 C 217.343 312.288,221.262 312.633,219.632 316.920 L 219.264 317.888 218.631 317.106 L 217.998 316.324 217.195 317.072 C 216.754 317.483,216.100 318.650,215.742 319.665 C 214.537 323.083,212.323 324.672,209.740 323.973 C 208.519 323.643,203.099 328.443,204.211 328.870 C 204.597 329.018,205.420 328.536,206.615 327.462 C 208.338 325.912,210.635 324.910,211.892 325.160 C 212.311 325.244,212.030 325.787,210.799 327.268 C 209.887 328.365,209.205 329.326,209.283 329.404 C 209.361 329.482,209.879 329.006,210.434 328.346 C 212.861 325.462,215.346 324.366,219.243 324.460 C 223.182 324.556,224.183 324.172,225.478 322.071 C 226.792 319.940,225.370 318.249,223.606 319.845 C 222.645 320.715,222.666 321.967,223.636 321.713 C 224.544 321.476,224.570 321.882,223.699 322.671 C 221.696 324.484,219.910 321.891,221.436 319.387 C 222.402 317.803,223.429 317.327,225.319 317.586 C 226.665 317.771,226.951 317.693,227.298 317.044 C 227.890 315.938,228.490 316.711,228.014 317.964 C 227.500 319.315,227.539 319.651,228.182 319.404 C 229.050 319.071,228.291 321.153,227.011 322.613 C 226.716 322.951,226.565 323.374,226.676 323.554 C 227.699 325.208,224.325 326.585,219.542 326.465 C 215.236 326.358,214.138 326.639,212.039 328.385 C 210.616 329.570,211.446 329.617,214.071 328.501 C 216.490 327.473,217.258 327.389,221.636 327.681 C 224.200 327.851,233.316 323.469,236.018 320.768 C 241.765 315.021,244.813 301.139,243.057 288.711 C 242.790 286.820,242.565 285.149,242.558 284.997 C 242.551 284.845,242.218 284.926,241.817 285.176 C 240.906 285.745,240.150 285.326,238.972 283.602 L 238.125 282.364 238.902 282.245 C 239.329 282.179,240.072 282.384,240.554 282.699 C 241.912 283.589,242.142 283.422,241.741 281.842 C 241.323 280.193,240.540 279.728,239.607 280.572 C 238.890 281.221,238.182 280.999,238.182 280.124 C 238.182 279.816,237.684 279.099,237.075 278.531 L 235.969 277.497 237.348 277.114 C 238.107 276.904,239.014 276.730,239.364 276.729 C 240.136 276.727,240.200 275.686,239.488 274.712 C 239.022 274.075,238.856 274.055,237.643 274.494 C 235.823 275.152,235.721 274.856,237.205 273.214 L 238.466 271.818 237.506 269.685 L 236.545 267.553 236.545 269.384 C 236.545 271.064,235.466 273.092,234.573 273.091 C 233.828 273.089,231.824 267.304,231.865 265.273 C 231.948 261.196,232.350 260.968,234.163 263.970 C 236.523 267.875,236.330 266.830,233.736 261.654 L 231.429 257.050 231.421 258.979 C 231.414 260.981,230.764 262.724,230.164 262.352 C 229.974 262.235,229.818 261.731,229.818 261.233 C 229.818 259.650,228.740 258.099,224.916 254.182 C 222.865 252.082,220.920 249.840,220.594 249.200 C 218.920 245.919,221.158 243.615,224.394 245.289 L 225.480 245.850 224.224 243.379 C 223.533 242.021,221.980 239.109,220.773 236.910 L 218.578 232.910 219.783 230.728 C 231.015 210.379,239.033 195.632,242.915 188.182 C 244.165 185.782,245.384 183.491,245.622 183.091 C 247.219 180.416,252.310 169.060,254.017 164.364 C 262.753 140.335,262.186 120.332,252.279 103.091 C 251.245 101.291,249.559 98.182,248.534 96.182 C 243.620 86.596,240.562 83.274,236.648 83.272 C 234.090 83.270,224.175 80.272,213.818 76.368 C 207.680 74.055,206.146 73.827,202.000 74.612 M208.405 102.562 C 217.275 104.726,223.176 108.084,227.369 113.356 C 240.372 129.700,238.621 158.738,222.430 195.228 L 220.595 199.364 221.016 201.773 C 221.248 203.098,221.943 205.717,222.561 207.593 L 223.685 211.005 222.479 212.926 C 221.816 213.982,219.800 217.226,218.000 220.134 C 214.338 226.049,214.573 225.809,213.782 224.452 C 213.462 223.904,211.680 220.836,209.821 217.636 C 207.963 214.436,204.968 209.282,203.166 206.182 C 201.363 203.082,199.608 200.218,199.266 199.818 C 197.613 197.890,187.603 180.287,183.528 172.143 C 177.717 160.531,176.093 155.637,174.021 143.496 C 172.328 133.576,172.520 127.813,174.784 120.597 C 176.321 115.698,179.117 110.147,179.736 110.766 C 179.844 110.874,180.417 110.712,181.010 110.406 C 183.533 109.101,193.113 107.755,197.041 108.152 C 209.029 109.367,218.425 117.964,223.408 132.279 C 227.195 143.161,226.998 149.078,222.243 167.273 C 220.835 172.660,219.844 178.236,219.529 182.545 L 219.383 184.545 220.960 181.273 C 244.123 133.218,231.012 97.231,192.456 103.037 C 188.789 103.589,189.047 103.044,192.772 102.369 C 197.109 101.584,204.783 101.679,208.405 102.562 M166.273 104.005 C 167.512 106.253,167.597 105.920,165.447 107.243 L 163.622 108.366 162.538 106.657 C 161.133 104.442,161.149 104.359,163.183 103.192 C 165.355 101.947,165.101 101.880,166.273 104.005 M164.182 112.858 C 173.875 117.391,170.057 131.659,159.378 130.811 C 154.317 130.409,150.885 126.616,150.860 121.396 C 150.828 114.547,157.985 109.959,164.182 112.858 M160.000 115.209 C 160.000 115.785,161.689 117.091,162.433 117.091 C 163.989 117.091,164.211 116.051,162.783 115.455 C 161.353 114.857,160.000 114.738,160.000 115.209 M155.282 117.317 C 153.925 118.863,154.224 119.639,155.873 118.853 C 156.646 118.484,156.938 118.059,157.023 117.179 C 157.171 115.653,156.712 115.689,155.282 117.317 M158.795 119.929 C 157.025 121.776,158.119 124.213,160.545 123.829 C 163.728 123.326,163.382 118.922,160.159 118.910 C 159.946 118.910,159.333 119.368,158.795 119.929 M165.527 120.436 C 164.945 121.019,164.973 122.609,165.581 123.440 C 166.151 124.219,166.443 123.893,166.548 122.364 C 166.710 119.989,166.455 119.508,165.527 120.436 M154.012 123.253 C 153.817 123.568,155.666 126.545,156.057 126.545 C 156.639 126.545,156.757 125.009,156.235 124.213 C 155.668 123.347,154.315 122.763,154.012 123.253 M160.571 126.753 C 159.358 127.967,160.278 128.372,162.491 127.601 C 163.748 127.163,163.948 126.743,163.061 126.403 C 162.084 126.028,161.168 126.157,160.571 126.753 M160.915 139.630 C 159.154 141.433,159.028 141.434,157.272 139.635 L 155.850 138.180 157.461 136.539 L 159.071 134.899 160.706 136.534 L 162.342 138.169 160.915 139.630 M201.695 231.818 C 202.618 232.922,203.261 233.392,203.671 233.262 C 204.104 233.124,204.492 233.478,205.022 234.496 L 205.766 235.922 204.950 236.688 C 203.705 237.859,200.692 236.334,201.450 234.917 C 201.708 234.435,201.606 234.103,201.042 233.592 C 200.246 232.872,199.273 231.205,199.273 230.564 C 199.273 229.695,200.414 230.286,201.695 231.818 M210.215 233.488 C 210.719 233.992,210.905 234.514,210.766 235.034 C 210.650 235.465,210.553 236.023,210.550 236.273 C 210.540 237.220,209.854 236.667,209.096 235.101 C 208.006 232.850,208.650 231.923,210.215 233.488 M215.862 234.712 C 216.005 235.082,216.384 235.178,217.124 235.030 C 217.966 234.861,218.182 234.947,218.182 235.448 C 218.182 235.794,218.591 236.563,219.091 237.157 C 220.605 238.956,220.026 240.541,217.943 240.299 C 216.696 240.154,215.573 238.463,216.265 237.772 C 216.603 237.433,216.782 237.552,217.068 238.304 C 217.430 239.255,218.304 239.595,218.707 238.942 C 219.370 237.869,217.133 236.230,215.727 236.759 C 214.294 237.299,214.661 238.884,216.909 241.851 C 219.015 244.630,219.268 245.508,218.343 246.828 C 217.716 247.723,216.899 247.933,217.212 247.118 C 217.566 246.196,216.688 243.894,214.685 240.491 C 212.712 237.137,212.128 234.965,213.324 235.424 C 213.699 235.568,214.111 235.379,214.435 234.917 C 215.042 234.051,215.579 233.973,215.862 234.712 M209.474 236.940 C 210.163 237.657,211.160 238.471,211.690 238.748 C 212.219 239.026,213.201 240.100,213.872 241.136 C 214.542 242.173,215.376 243.445,215.725 243.965 C 217.432 246.506,215.377 248.861,212.570 247.581 C 212.064 247.351,211.558 246.870,211.444 246.513 C 211.331 246.155,210.513 245.404,209.627 244.844 C 208.740 244.283,207.833 243.385,207.611 242.848 C 207.388 242.310,206.567 241.448,205.785 240.930 C 204.433 240.036,203.929 238.857,204.696 238.383 C 205.162 238.095,207.078 239.780,208.021 241.307 C 208.455 242.009,208.890 242.504,208.987 242.407 C 209.085 242.309,208.739 241.672,208.219 240.990 C 207.039 239.442,206.992 238.549,208.091 238.534 C 208.882 238.523,208.876 238.498,207.909 237.776 C 206.766 236.923,206.559 235.636,207.565 235.636 C 207.926 235.636,208.785 236.223,209.474 236.940 M185.199 239.182 C 185.710 240.332,187.349 243.891,188.839 247.091 C 195.915 262.282,200.441 283.096,198.900 293.358 C 196.419 309.877,184.402 317.793,174.696 309.302 C 165.686 301.420,167.780 280.457,181.210 244.091 C 184.140 236.158,183.955 236.386,185.199 239.182 M205.375 241.699 C 206.657 242.275,206.680 242.315,205.818 242.457 C 205.318 242.540,204.754 242.757,204.564 242.940 C 203.987 243.495,202.592 243.313,202.244 242.636 C 201.439 241.073,202.966 240.616,205.375 241.699 M209.491 246.442 C 211.892 248.040,213.491 248.850,214.518 248.988 C 215.960 249.181,215.997 249.218,215.410 249.868 C 214.153 251.257,212.586 250.704,209.355 247.733 C 206.766 245.352,204.535 245.757,205.227 248.483 C 205.471 249.442,206.855 250.381,207.328 249.909 C 207.810 249.426,207.324 248.429,206.475 248.160 C 205.955 247.994,205.857 247.815,206.135 247.537 C 206.750 246.923,208.305 247.820,208.589 248.953 C 209.117 251.057,207.011 252.021,205.470 250.380 C 204.992 249.871,204.283 249.455,203.895 249.455 C 203.318 249.455,203.219 249.256,203.351 248.357 C 203.447 247.707,203.315 247.095,203.029 246.858 C 202.316 246.266,202.435 245.853,203.452 245.390 C 204.118 245.086,204.258 244.857,203.982 244.524 C 203.717 244.204,203.745 244.016,204.076 243.886 C 204.888 243.566,205.868 244.029,209.491 246.442 M224.455 247.154 C 223.253 247.629,224.388 250.302,226.433 251.814 C 227.195 252.377,228.454 253.427,229.231 254.146 L 230.643 255.455 228.536 251.455 C 227.376 249.255,226.414 247.434,226.396 247.409 C 226.249 247.200,224.814 247.011,224.455 247.154 M223.956 254.697 C 226.426 256.949,228.364 259.957,228.364 261.539 C 228.364 262.582,228.978 264.254,230.521 267.408 C 231.708 269.833,233.251 273.254,233.951 275.009 C 234.650 276.764,235.643 278.699,236.157 279.309 C 237.114 280.446,237.603 285.455,236.758 285.455 C 236.129 285.455,234.054 282.461,233.766 281.139 C 233.537 280.089,233.507 280.246,233.622 281.909 L 233.766 284.000 232.701 284.000 C 231.986 284.000,231.636 284.183,231.636 284.558 C 231.636 286.599,229.603 287.524,229.250 285.644 C 228.862 283.577,232.506 278.644,233.820 279.456 C 234.382 279.803,234.270 279.342,232.893 275.636 C 230.661 269.629,227.645 263.717,226.689 263.478 C 225.461 263.169,219.273 252.842,219.273 251.100 C 219.273 250.805,221.903 252.825,223.956 254.697 M219.081 254.327 C 219.768 255.166,221.133 257.573,222.116 259.677 C 223.420 262.470,224.278 263.813,225.295 264.651 C 226.929 265.998,226.820 266.238,224.556 266.272 C 222.052 266.310,221.128 265.438,219.799 261.782 C 218.338 257.765,217.970 257.143,216.894 256.873 C 215.771 256.591,214.987 257.204,214.840 258.481 L 214.727 259.455 214.058 258.468 C 210.913 253.833,215.546 250.013,219.081 254.327 M205.336 260.787 C 206.122 261.525,206.216 261.536,206.843 260.969 C 208.651 259.333,211.929 260.731,212.682 263.459 C 213.411 266.097,211.440 268.558,209.792 267.067 C 208.748 266.122,208.867 265.149,210.000 265.366 C 211.112 265.578,211.310 263.955,210.307 262.847 C 208.716 261.088,206.349 262.736,206.649 265.394 C 206.970 268.242,207.892 268.727,212.978 268.727 C 217.987 268.727,219.722 269.176,221.471 270.926 C 223.628 273.083,224.255 277.370,222.714 279.428 C 221.934 280.470,221.733 279.935,222.203 278.068 C 222.997 274.914,220.805 271.020,217.873 270.376 C 217.210 270.230,214.963 270.511,212.145 271.091 C 207.244 272.101,206.148 272.060,204.818 270.819 C 203.855 269.920,203.772 269.256,204.585 268.944 C 205.065 268.760,204.932 268.458,203.835 267.244 C 202.226 265.463,202.161 264.116,203.692 264.294 L 204.657 264.406 204.167 262.984 C 203.331 260.557,203.918 259.454,205.336 260.787 M214.257 261.710 C 215.870 263.284,216.075 264.799,214.883 266.315 C 213.921 267.537,212.913 267.628,213.339 266.455 C 213.904 264.901,213.658 262.635,212.798 261.473 C 211.643 259.910,212.568 260.060,214.257 261.710 M228.364 268.304 C 229.114 268.824,231.926 273.731,231.983 274.622 C 231.993 274.764,231.353 275.074,230.562 275.311 C 228.418 275.953,227.637 275.272,226.277 271.576 C 225.663 269.909,225.037 268.236,224.886 267.858 C 224.536 266.986,226.899 267.289,228.364 268.304 M219.234 273.021 C 220.112 273.559,221.073 274.368,221.369 274.818 L 221.907 275.636 218.999 275.636 C 215.727 275.636,213.832 276.182,211.476 277.803 C 209.522 279.148,209.376 279.163,209.827 277.976 C 210.305 276.720,210.308 276.727,209.273 276.727 C 208.004 276.727,208.139 276.152,209.634 275.185 C 210.333 274.733,210.830 274.162,210.739 273.915 C 210.408 273.020,214.395 271.558,216.364 271.852 C 217.064 271.956,218.355 272.482,219.234 273.021 M228.987 279.755 C 227.001 281.653,225.919 283.032,225.224 284.550 C 224.352 286.454,224.216 286.595,223.948 285.870 C 223.692 285.177,223.537 285.119,222.884 285.468 C 221.895 285.997,221.713 285.779,222.161 284.599 C 222.361 284.073,222.440 283.422,222.337 283.153 C 221.773 281.682,228.098 277.103,230.706 277.094 C 231.732 277.091,231.662 277.199,228.987 279.755 M234.684 285.230 C 235.179 287.203,233.679 289.272,232.059 288.848 C 231.260 288.639,230.956 288.000,231.655 288.000 C 231.865 288.000,232.291 287.386,232.602 286.636 C 233.596 284.236,234.313 283.752,234.684 285.230 M239.934 285.636 C 240.528 286.136,241.195 286.545,241.416 286.545 C 241.944 286.545,241.928 287.018,241.382 287.564 C 240.228 288.717,238.182 287.433,238.182 285.555 C 238.182 284.491,238.595 284.510,239.934 285.636 M236.525 286.263 C 237.256 287.306,237.243 288.320,236.489 289.153 C 235.695 290.031,234.431 290.051,234.676 289.182 C 234.775 288.832,234.964 287.850,235.096 287.000 C 235.367 285.260,235.702 285.087,236.525 286.263 M239.070 288.445 C 239.800 289.486,239.793 290.508,239.054 290.792 C 238.307 291.078,237.831 290.315,237.824 288.818 C 237.817 287.441,238.272 287.304,239.070 288.445 M219.857 298.341 C 219.882 299.697,220.073 300.547,220.397 300.748 C 220.783 300.986,220.813 301.294,220.528 302.075 C 220.264 302.800,220.285 303.455,220.604 304.364 C 220.849 305.064,221.059 305.470,221.070 305.266 C 221.160 303.645,225.091 303.784,225.091 305.408 C 225.091 305.754,225.257 306.202,225.460 306.405 C 226.431 307.376,223.444 311.079,222.394 310.207 C 221.392 309.375,221.932 306.909,223.116 306.909 C 223.559 306.909,223.584 307.054,223.252 307.675 C 222.967 308.208,222.958 308.558,223.222 308.822 C 223.857 309.457,224.597 307.446,223.994 306.720 C 223.007 305.530,222.077 306.229,220.920 309.031 C 219.577 312.283,219.166 312.555,216.494 311.957 C 213.533 311.294,213.351 311.007,213.645 307.475 C 213.917 304.215,213.398 303.038,212.060 303.876 C 211.308 304.347,210.985 306.339,211.699 306.099 C 211.965 306.010,212.185 305.706,212.189 305.423 C 212.203 304.368,212.913 304.589,213.020 305.682 C 213.203 307.570,211.360 308.795,210.566 307.312 C 209.999 306.251,210.352 303.116,211.055 302.973 C 211.375 302.909,211.636 302.633,211.636 302.360 C 211.636 301.219,214.451 301.799,214.945 303.043 C 215.561 304.591,215.526 304.577,216.342 303.597 C 216.741 303.119,217.072 302.195,217.079 301.545 C 217.086 300.797,217.272 300.364,217.586 300.364 C 217.909 300.364,218.156 299.729,218.297 298.537 C 218.695 295.175,219.796 295.037,219.857 298.341 M204.621 305.823 C 204.492 306.317,204.774 306.900,205.487 307.613 C 206.699 308.824,206.902 310.602,205.979 311.919 C 204.777 313.636,200.861 312.334,201.823 310.537 C 202.277 309.689,202.909 309.588,202.909 310.364 C 202.909 311.312,204.327 310.999,204.579 309.995 C 205.075 308.018,202.391 307.152,201.235 308.916 C 200.397 310.195,200.745 311.812,202.413 314.397 C 205.120 318.589,202.752 323.219,197.879 323.265 C 196.579 323.277,197.132 322.424,198.657 322.064 C 200.372 321.658,202.182 319.647,202.182 318.145 C 202.182 316.793,201.819 316.093,199.577 313.128 C 197.475 310.346,197.153 307.159,199.044 307.841 C 199.270 307.922,199.700 307.460,200.000 306.813 C 200.580 305.561,201.818 304.990,201.818 305.973 C 201.818 306.288,201.982 306.545,202.182 306.545 C 202.382 306.545,202.545 306.407,202.545 306.237 C 202.545 305.933,203.885 305.163,204.497 305.116 C 204.670 305.102,204.726 305.420,204.621 305.823 M198.271 313.596 C 200.022 314.143,200.916 317.876,199.809 320.018 C 199.092 321.405,199.015 321.379,198.533 319.591 C 197.994 317.588,196.858 315.921,195.314 314.867 C 194.129 314.058,194.099 313.992,194.868 313.880 C 195.375 313.806,195.621 313.575,195.507 313.279 C 195.208 312.500,195.672 312.347,196.687 312.890 C 197.209 313.169,197.922 313.487,198.271 313.596 M204.727 321.897 C 204.727 323.962,201.744 326.920,200.655 325.934 C 199.501 324.891,199.852 323.827,201.909 322.125 C 202.959 321.256,203.873 320.422,203.940 320.270 C 204.251 319.570,204.727 320.555,204.727 321.897 " stroke="none" fill="#d5d2cf" fill-rule="evenodd"></path><path id="path1" d="M30.545 0.249 C 15.371 2.788,3.389 14.417,0.512 29.396 C -0.257 33.403,-0.257 366.597,0.512 370.604 C 3.113 384.144,13.587 395.406,26.909 398.987 L 30.000 399.818 200.000 399.818 L 370.000 399.818 373.091 398.987 C 385.288 395.709,395.456 385.612,398.986 373.273 L 399.818 370.364 399.928 201.636 C 400.010 75.337,399.931 32.228,399.617 30.201 C 397.497 16.538,387.134 5.067,373.262 1.026 L 370.364 0.182 200.909 0.139 C 107.709 0.116,31.045 0.165,30.545 0.249 M213.389 75.840 C 215.925 76.752,219.261 77.979,220.802 78.566 C 225.358 80.301,233.296 82.503,236.398 82.892 C 239.854 83.325,240.116 83.452,242.212 85.700 C 245.933 89.690,255.095 106.690,257.660 114.363 C 263.087 130.596,260.684 151.372,250.882 172.969 C 248.626 177.939,242.001 190.897,238.363 197.455 C 237.309 199.355,235.387 202.873,234.093 205.273 C 232.799 207.673,230.840 211.273,229.741 213.273 C 227.245 217.813,221.782 227.810,220.178 230.773 L 218.972 233.001 221.600 237.864 C 238.053 268.319,241.752 276.954,243.465 288.909 C 244.785 298.114,243.441 308.053,239.816 315.899 C 234.319 327.797,210.592 333.753,196.713 326.720 C 195.085 325.895,194.763 325.849,193.188 326.217 C 185.210 328.082,175.023 323.749,169.635 316.199 C 159.308 301.726,162.244 276.682,178.790 238.118 L 181.548 231.690 180.002 229.027 C 145.428 169.461,137.622 146.909,142.771 121.455 C 145.503 107.944,154.708 93.030,162.835 88.944 C 164.883 87.914,165.753 87.223,166.653 85.909 C 170.602 80.141,172.373 79.172,181.455 77.802 C 184.155 77.395,189.800 76.432,194.000 75.663 C 204.979 73.651,207.363 73.673,213.389 75.840 M185.238 109.631 C 183.108 110.094,179.539 111.423,178.678 112.072 C 177.983 112.597,174.645 121.469,174.054 124.364 C 171.377 137.473,175.170 155.261,184.562 173.636 C 189.131 182.576,198.921 199.432,199.291 198.996 C 200.379 197.712,208.251 179.098,211.092 171.091 C 222.230 139.707,220.998 122.037,207.053 113.172 C 201.438 109.602,192.235 108.109,185.238 109.631 " stroke="none" fill="#043444" fill-rule="evenodd"></path><path id="path2" d="M159.550 112.257 C 160.002 112.344,160.657 112.341,161.004 112.250 C 161.352 112.159,160.982 112.088,160.182 112.092 C 159.382 112.096,159.097 112.170,159.550 112.257 M157.818 112.743 C 158.252 113.066,158.164 113.106,157.392 112.939 C 154.409 112.291,150.568 117.998,151.020 122.408 C 151.998 131.955,165.200 133.870,168.893 125.000 C 169.921 122.531,168.951 115.369,167.694 116.146 C 167.516 116.256,167.062 116.006,166.685 115.589 C 165.438 114.211,162.572 113.116,158.727 112.551 C 157.606 112.386,157.398 112.430,157.818 112.743 M163.596 114.887 C 164.029 115.119,164.288 115.465,164.171 115.655 C 164.053 115.845,164.171 116.013,164.433 116.029 C 164.802 116.051,164.806 116.099,164.452 116.242 C 164.201 116.343,164.078 116.559,164.179 116.722 C 164.280 116.886,163.432 116.994,162.296 116.964 L 160.229 116.909 160.088 115.674 C 159.876 113.814,161.084 113.543,163.596 114.887 M157.394 116.676 C 157.547 117.755,156.164 119.273,155.028 119.273 C 153.914 119.273,153.960 118.593,155.182 116.975 C 156.292 115.504,157.209 115.380,157.394 116.676 M168.702 118.364 C 168.702 118.564,168.468 118.318,168.182 117.818 C 167.896 117.318,167.662 116.745,167.662 116.545 C 167.662 116.345,167.896 116.591,168.182 117.091 C 168.468 117.591,168.702 118.164,168.702 118.364 M161.519 119.040 C 161.854 119.054,162.060 119.176,161.975 119.313 C 161.891 119.449,162.067 119.654,162.366 119.769 C 162.717 119.904,162.909 120.470,162.909 121.374 C 162.909 124.970,158.731 125.268,157.615 121.752 C 157.313 120.801,159.513 118.406,160.352 118.771 C 160.658 118.905,161.183 119.026,161.519 119.040 M166.904 121.364 C 166.896 123.735,166.467 124.370,165.477 123.475 C 164.584 122.667,164.517 121.553,165.293 120.445 C 166.267 119.054,166.910 119.420,166.904 121.364 M156.000 123.636 C 156.730 124.366,156.998 126.335,156.416 126.695 C 155.870 127.032,153.818 124.349,153.818 123.297 C 153.818 122.645,155.229 122.865,156.000 123.636 M163.077 126.308 C 163.969 126.961,163.555 127.523,161.791 128.051 C 159.721 128.671,159.025 127.958,160.475 126.702 C 161.641 125.692,162.132 125.618,163.077 126.308 M154.182 127.818 C 154.860 128.518,155.334 129.091,155.234 129.091 C 155.134 129.091,154.497 128.518,153.818 127.818 C 153.140 127.118,152.666 126.545,152.766 126.545 C 152.866 126.545,153.503 127.118,154.182 127.818 M157.435 136.636 L 156.182 138.000 157.545 136.747 C 158.295 136.058,158.909 135.444,158.909 135.383 C 158.909 135.106,158.601 135.367,157.435 136.636 M158.788 136.242 C 158.406 136.624,158.505 137.159,158.912 136.908 C 159.113 136.783,159.376 136.937,159.496 137.250 C 159.616 137.562,159.952 137.818,160.242 137.818 C 160.549 137.818,160.661 137.994,160.511 138.238 C 160.344 138.508,160.412 138.559,160.701 138.380 C 161.027 138.178,160.874 137.814,160.144 137.051 C 159.002 135.860,159.108 135.923,158.788 136.242 M200.419 230.727 C 201.049 231.521,200.922 232.515,200.242 232.126 C 199.999 231.987,199.947 232.024,200.121 232.214 C 200.288 232.396,200.602 232.545,200.818 232.545 C 201.035 232.545,201.288 232.773,201.381 233.051 C 201.496 233.398,201.392 233.463,201.047 233.261 C 200.761 233.092,200.815 233.275,201.174 233.685 C 201.520 234.081,201.736 234.754,201.654 235.181 C 201.551 235.716,201.655 235.900,201.988 235.772 C 202.254 235.670,202.596 235.787,202.747 236.031 C 202.934 236.334,202.870 236.382,202.545 236.182 C 202.237 235.991,202.157 236.030,202.319 236.292 C 202.456 236.514,202.836 236.593,203.162 236.468 C 203.591 236.303,203.673 236.374,203.458 236.722 C 203.240 237.074,203.297 237.117,203.671 236.880 C 204.190 236.552,204.371 236.495,205.182 236.404 C 205.490 236.369,205.510 236.266,205.246 236.085 C 204.655 235.680,204.268 234.454,204.822 234.740 C 205.070 234.868,204.864 234.634,204.364 234.221 C 203.796 233.753,203.648 233.468,203.970 233.463 C 204.253 233.458,204.387 233.356,204.267 233.236 C 204.147 233.116,203.833 233.153,203.570 233.318 C 202.635 233.904,201.452 233.884,201.681 233.286 C 201.799 232.981,202.082 232.839,202.311 232.969 C 202.549 233.106,202.598 233.066,202.424 232.876 C 202.258 232.694,201.930 232.545,201.697 232.545 C 201.464 232.544,201.271 232.262,201.269 231.917 C 201.266 231.573,200.945 231.000,200.554 230.645 C 199.863 230.018,199.859 230.021,200.419 230.727 M209.604 233.364 C 209.762 233.643,209.642 233.818,209.294 233.818 C 208.573 233.818,208.575 234.219,209.300 235.112 C 209.615 235.501,209.769 235.614,209.642 235.364 C 209.515 235.114,209.571 234.909,209.766 234.909 C 209.962 234.909,210.200 235.114,210.297 235.364 C 210.393 235.614,210.433 235.362,210.385 234.804 C 210.338 234.246,210.085 233.592,209.823 233.349 C 209.450 233.004,209.403 233.007,209.604 233.364 M214.481 235.088 C 214.210 235.683,213.931 235.881,213.670 235.665 C 212.951 235.068,213.266 237.550,214.118 239.182 C 214.993 240.860,215.152 241.013,215.152 240.182 C 215.152 239.882,215.020 239.636,214.860 239.636 C 214.700 239.636,214.673 239.364,214.800 239.031 C 214.948 238.646,214.889 238.515,214.638 238.670 C 213.872 239.143,213.924 237.990,214.701 237.273 C 215.134 236.873,215.236 236.700,214.926 236.889 C 214.433 237.190,214.435 237.155,214.937 236.602 C 215.402 236.090,215.699 236.042,216.503 236.348 C 217.049 236.555,217.416 236.595,217.318 236.436 C 217.219 236.277,217.289 235.909,217.473 235.619 C 217.752 235.179,217.816 235.197,217.858 235.727 C 217.954 236.926,218.001 237.055,218.508 237.527 C 218.930 237.920,218.962 237.908,218.695 237.455 C 218.336 236.843,218.292 236.672,218.227 235.636 C 218.174 234.789,217.166 234.655,216.859 235.455 C 216.610 236.102,215.960 236.193,216.091 235.562 C 216.141 235.321,215.977 235.096,215.727 235.062 C 214.780 234.933,214.741 234.889,215.273 234.545 C 215.649 234.303,215.674 234.191,215.356 234.187 C 215.102 234.184,214.708 234.590,214.481 235.088 M207.679 236.069 C 207.655 236.408,207.803 236.787,208.006 236.913 C 208.209 237.038,208.271 237.310,208.144 237.516 C 207.991 237.763,208.158 237.759,208.636 237.504 C 209.033 237.291,209.501 237.233,209.676 237.376 C 209.850 237.519,209.682 237.268,209.303 236.818 C 208.601 235.983,208.140 235.707,208.545 236.364 C 208.669 236.564,208.609 236.727,208.412 236.727 C 208.215 236.727,207.978 236.441,207.887 236.091 C 207.737 235.517,207.717 235.515,207.679 236.069 M209.273 238.262 C 209.673 238.494,210.047 238.647,210.105 238.603 C 210.162 238.559,210.620 239.010,211.122 239.607 C 211.938 240.577,213.441 240.861,212.870 239.937 C 212.751 239.744,212.437 239.670,212.172 239.772 C 211.631 239.979,210.783 239.156,211.155 238.785 C 211.286 238.653,211.203 238.525,210.970 238.500 C 210.021 238.398,209.867 238.352,209.606 238.091 C 209.456 237.941,209.156 237.823,208.939 237.829 C 208.723 237.835,208.873 238.030,209.273 238.262 M219.014 238.545 C 218.808 239.334,217.839 239.512,217.205 238.877 C 216.920 238.593,216.739 238.595,216.559 238.886 C 216.419 239.113,216.514 239.247,216.775 239.191 C 217.030 239.136,217.247 239.336,217.256 239.636 C 217.294 240.899,219.382 240.285,219.420 239.000 C 219.459 237.659,219.295 237.474,219.014 238.545 M204.406 238.886 C 204.344 239.650,205.809 241.072,206.417 240.838 C 206.704 240.728,206.893 240.781,206.836 240.955 C 206.779 241.130,207.018 241.677,207.366 242.172 C 207.715 242.666,208.000 242.861,208.000 242.605 C 208.000 242.349,208.172 242.245,208.381 242.375 C 208.645 242.537,208.639 242.759,208.362 243.093 C 208.006 243.522,210.939 246.088,211.636 245.956 C 211.736 245.938,212.105 246.226,212.455 246.597 C 213.164 247.351,212.797 247.529,211.999 246.818 C 211.568 246.434,211.561 246.458,211.952 246.977 C 212.556 247.778,214.344 248.157,215.168 247.657 C 215.702 247.333,215.624 247.297,214.727 247.458 C 213.769 247.629,213.736 247.609,214.455 247.293 C 214.905 247.095,215.275 246.723,215.278 246.466 C 215.282 246.140,215.390 246.164,215.636 246.545 C 215.897 246.949,215.990 246.725,215.994 245.679 C 215.999 244.529,215.761 244.042,214.704 243.046 C 213.948 242.332,213.517 241.648,213.669 241.401 C 213.832 241.138,213.772 241.077,213.511 241.238 C 213.280 241.381,213.091 241.329,213.091 241.124 C 213.091 240.918,212.862 240.838,212.581 240.946 C 212.301 241.053,211.307 240.557,210.372 239.843 C 209.437 239.129,208.316 238.562,207.881 238.582 C 207.152 238.615,207.162 238.641,208.000 238.909 C 208.500 239.069,208.722 239.217,208.493 239.236 C 208.265 239.256,207.984 239.516,207.870 239.814 C 207.750 240.127,207.849 240.318,208.104 240.268 C 208.347 240.221,208.548 240.457,208.550 240.793 C 208.553 241.128,208.702 241.537,208.881 241.702 C 209.072 241.876,209.082 241.774,208.905 241.455 C 208.702 241.090,208.855 241.131,209.368 241.580 C 210.187 242.297,210.127 243.152,209.257 243.152 C 208.966 243.152,208.808 243.071,208.906 242.973 C 209.172 242.706,208.327 241.798,208.000 242.000 C 207.845 242.096,207.517 241.930,207.269 241.632 C 206.930 241.223,206.926 241.091,207.253 241.091 C 207.511 241.091,207.373 240.651,206.909 240.000 C 206.277 239.112,206.007 238.977,205.456 239.272 C 204.928 239.554,204.744 239.495,204.614 238.999 C 204.507 238.588,204.433 238.548,204.406 238.886 M202.518 241.182 C 202.013 242.830,203.081 243.579,204.724 242.729 C 205.326 242.418,205.818 242.081,205.818 241.981 C 205.818 241.881,205.335 242.049,204.745 242.354 C 203.334 243.084,202.891 243.063,203.956 242.317 C 204.618 241.853,204.695 241.658,204.310 241.414 C 203.862 241.130,202.584 240.964,202.518 241.182 M216.715 242.924 C 216.320 243.174,216.306 243.263,216.658 243.267 C 216.920 243.270,217.033 243.436,216.909 243.636 C 216.785 243.836,216.875 244.000,217.108 244.000 C 217.342 244.000,217.438 244.245,217.323 244.545 C 217.208 244.845,217.256 245.091,217.430 245.091 C 217.604 245.091,217.692 245.666,217.627 246.368 C 217.559 247.104,217.654 247.556,217.851 247.434 C 218.039 247.318,218.084 247.045,217.950 246.829 C 217.817 246.612,218.018 246.208,218.397 245.930 C 218.956 245.522,218.992 245.367,218.588 245.117 C 218.313 244.947,218.201 244.627,218.339 244.404 C 218.476 244.182,218.405 244.000,218.182 244.000 C 217.958 244.000,217.865 243.855,217.975 243.678 C 218.306 243.142,217.311 242.547,216.715 242.924 M204.258 244.727 C 204.391 245.233,204.269 245.455,203.861 245.455 C 203.226 245.455,203.065 246.011,203.604 246.344 C 203.969 246.569,203.923 247.471,203.526 247.868 C 202.964 248.430,203.333 249.046,204.367 249.273 C 204.969 249.406,205.375 249.653,205.270 249.823 C 204.984 250.285,205.857 250.709,207.114 250.719 C 208.111 250.726,208.208 250.632,208.041 249.818 C 207.903 249.148,207.819 249.076,207.719 249.545 C 207.644 249.895,207.445 250.182,207.276 250.182 C 207.107 250.182,206.703 250.284,206.379 250.408 C 206.054 250.533,205.835 250.492,205.891 250.317 C 206.041 249.856,204.888 248.325,204.604 248.608 C 204.472 248.740,204.364 248.412,204.364 247.879 C 204.364 247.345,204.537 246.909,204.749 246.909 C 204.961 246.909,205.033 246.745,204.909 246.545 C 204.785 246.345,204.949 246.182,205.273 246.182 C 205.596 246.182,205.760 246.018,205.636 245.818 C 205.504 245.603,205.904 245.457,206.615 245.460 C 207.526 245.464,207.686 245.551,207.273 245.818 C 206.945 246.030,206.900 246.173,207.160 246.176 C 208.126 246.189,207.932 245.472,206.778 244.758 C 205.156 243.756,204.001 243.742,204.258 244.727 M221.166 245.364 C 220.910 245.714,220.814 245.755,220.954 245.455 C 221.093 245.155,221.082 245.022,220.928 245.161 C 220.581 245.473,220.424 248.733,220.766 248.521 C 221.082 248.326,221.517 249.423,221.278 249.810 C 221.179 249.969,221.383 250.322,221.731 250.595 C 222.317 251.054,222.323 251.037,221.818 250.364 C 221.312 249.689,221.319 249.673,221.909 250.135 C 222.259 250.410,222.545 250.846,222.545 251.105 C 222.545 251.364,223.523 252.460,224.718 253.541 C 227.277 255.857,229.322 258.436,229.657 259.770 C 229.789 260.298,230.064 260.618,230.274 260.489 C 230.523 260.335,230.563 260.614,230.391 261.309 C 230.185 262.144,230.224 262.272,230.580 261.922 C 231.299 261.214,231.440 257.742,230.799 256.503 C 230.112 255.173,226.651 251.892,226.219 252.159 C 226.044 252.267,225.698 252.112,225.451 251.814 C 225.204 251.516,225.129 251.273,225.285 251.273 C 225.440 251.273,225.308 250.986,224.991 250.636 C 223.402 248.880,223.665 246.546,225.400 247.000 C 225.830 247.113,226.182 247.056,226.182 246.875 C 226.182 246.694,225.845 246.545,225.433 246.545 C 225.021 246.545,224.781 246.389,224.900 246.197 C 225.527 245.183,221.893 244.371,221.166 245.364 M209.596 247.069 C 209.706 247.824,211.667 249.842,212.056 249.602 C 212.225 249.497,212.364 249.557,212.364 249.734 C 212.364 249.911,212.895 250.006,213.545 249.946 C 214.622 249.846,214.647 249.864,213.818 250.154 C 213.153 250.388,213.086 250.483,213.569 250.509 C 214.391 250.554,215.636 249.911,215.636 249.442 C 215.636 249.249,215.221 249.091,214.713 249.091 C 214.205 249.091,213.182 248.786,212.440 248.414 C 211.698 248.042,210.864 247.818,210.586 247.916 C 210.305 248.015,210.182 247.930,210.309 247.725 C 210.435 247.521,210.307 247.164,210.025 246.930 C 209.620 246.594,209.530 246.623,209.596 247.069 M207.091 248.000 C 206.967 248.200,206.917 248.376,206.979 248.391 C 208.176 248.688,208.380 248.639,207.976 248.153 C 207.466 247.539,207.385 247.525,207.091 248.000 M219.862 251.929 C 219.744 252.120,220.069 252.697,220.583 253.211 C 221.132 253.760,221.407 254.328,221.249 254.584 C 221.065 254.881,221.133 254.926,221.460 254.724 C 221.813 254.506,221.878 254.593,221.702 255.050 C 221.560 255.421,221.609 255.584,221.822 255.452 C 222.151 255.249,222.343 255.746,222.217 256.478 C 222.160 256.810,224.494 261.298,225.223 262.258 C 225.483 262.601,226.131 263.046,226.664 263.249 C 227.362 263.514,228.008 264.375,228.976 266.333 C 229.716 267.826,230.481 268.949,230.676 268.828 C 230.886 268.698,230.934 268.864,230.793 269.232 C 230.662 269.575,230.695 269.769,230.868 269.662 C 231.041 269.555,231.192 269.833,231.204 270.279 C 231.232 271.262,233.990 278.252,234.249 277.994 C 234.349 277.893,234.309 278.590,234.160 279.542 C 233.890 281.271,234.462 283.317,235.373 283.880 C 235.609 284.026,235.639 283.922,235.452 283.602 C 235.277 283.299,235.291 283.215,235.487 283.394 C 235.669 283.561,235.821 283.806,235.824 283.939 C 235.834 284.406,236.410 285.091,236.791 285.091 C 237.626 285.091,236.946 280.454,235.953 279.370 C 235.446 278.816,234.328 276.564,233.468 274.364 C 232.608 272.164,231.028 268.612,229.957 266.471 C 228.872 264.301,228.106 262.330,228.226 262.016 C 228.344 261.707,228.317 261.168,228.166 260.818 C 228.014 260.468,227.846 259.969,227.793 259.709 C 227.607 258.806,225.768 256.715,225.375 256.958 C 225.157 257.093,225.078 257.042,225.200 256.845 C 225.398 256.524,223.784 254.808,221.038 252.418 C 220.509 251.958,219.980 251.738,219.862 251.929 M214.245 253.205 C 213.351 254.157,213.174 256.442,213.877 257.983 C 214.416 259.168,214.909 259.171,214.909 257.989 C 214.909 257.482,215.154 256.974,215.452 256.860 C 215.751 256.745,215.927 256.540,215.843 256.403 C 215.759 256.267,215.997 256.156,216.373 256.156 C 216.749 256.156,216.991 256.221,216.912 256.300 C 216.833 256.380,217.221 256.826,217.774 257.291 C 218.415 257.831,219.098 259.070,219.655 260.706 C 220.135 262.117,220.665 263.273,220.831 263.273 C 220.998 263.273,221.023 263.452,220.888 263.671 C 220.391 264.475,222.837 266.182,224.477 266.176 C 225.594 266.172,225.855 266.077,225.455 265.818 C 224.970 265.505,224.970 265.465,225.455 265.456 C 225.786 265.450,225.556 265.096,224.867 264.554 C 224.244 264.062,223.529 263.164,223.278 262.558 C 223.026 261.951,222.667 261.455,222.480 261.455 C 222.292 261.455,222.225 261.316,222.330 261.146 C 222.998 260.065,217.938 252.464,216.833 252.888 C 216.554 252.995,216.426 252.921,216.548 252.723 C 217.008 251.979,215.003 252.399,214.245 253.205 M207.070 260.936 C 206.681 261.251,206.593 261.389,206.874 261.244 C 207.202 261.074,207.296 261.123,207.135 261.382 C 206.907 261.753,206.192 261.658,205.273 261.136 C 203.945 260.382,203.753 261.109,204.558 263.850 C 204.756 264.525,204.657 264.591,203.663 264.445 C 202.958 264.342,202.545 264.438,202.545 264.707 C 202.545 264.942,202.735 265.017,202.966 264.874 C 203.256 264.695,203.322 264.864,203.177 265.418 C 203.028 265.986,203.278 266.577,204.029 267.432 C 205.232 268.802,205.322 269.091,204.545 269.091 C 204.245 269.091,204.000 269.264,204.000 269.476 C 204.000 269.688,204.162 269.761,204.359 269.639 C 204.557 269.517,204.631 269.646,204.523 269.927 C 204.222 270.713,205.965 271.638,207.714 271.621 C 209.537 271.603,213.226 270.802,212.916 270.491 C 212.798 270.374,213.141 270.362,213.678 270.464 C 214.214 270.567,214.564 270.504,214.454 270.325 C 214.344 270.146,215.288 270.000,216.552 270.000 C 217.815 270.000,218.788 270.062,218.712 270.137 C 218.636 270.212,219.100 270.623,219.742 271.049 C 221.252 272.052,222.545 274.624,222.545 276.623 C 222.545 277.525,222.716 278.182,222.950 278.182 C 223.904 278.182,223.146 273.226,221.970 271.773 C 220.075 269.433,218.737 268.977,213.929 269.037 C 208.256 269.108,206.182 268.021,206.182 264.976 C 206.182 262.530,209.488 261.149,210.747 263.070 C 211.641 264.434,211.321 265.652,210.091 265.568 C 208.976 265.492,208.930 265.565,209.467 266.569 C 209.993 267.552,211.491 267.470,212.178 266.420 C 213.062 265.071,212.230 261.045,211.198 261.682 C 210.956 261.832,210.900 261.764,211.057 261.510 C 211.674 260.511,208.208 260.013,207.070 260.936 M213.013 261.455 C 214.088 263.376,214.258 264.569,213.661 265.997 C 213.035 267.494,213.355 267.631,214.538 266.372 C 215.775 265.055,215.212 261.180,213.837 261.548 C 213.655 261.596,213.235 261.309,212.903 260.909 C 212.484 260.403,212.518 260.569,213.013 261.455 M232.159 263.477 C 231.790 265.943,232.145 267.893,233.475 270.694 L 234.668 273.206 235.537 272.148 C 236.939 270.444,236.573 268.090,234.366 264.606 C 232.281 261.315,232.469 261.411,232.159 263.477 M225.234 268.212 C 225.355 268.528,225.455 268.947,225.455 269.142 C 225.455 269.338,225.616 269.397,225.814 269.275 C 226.020 269.148,226.081 269.294,225.957 269.617 C 225.838 269.929,225.931 270.182,226.164 270.182 C 226.398 270.182,226.494 270.335,226.378 270.521 C 226.120 270.940,227.187 273.768,227.931 274.636 C 228.482 275.279,230.380 275.492,231.130 274.994 C 232.080 274.365,229.875 269.410,228.180 268.362 C 226.718 267.459,224.909 267.366,225.234 268.212 M212.455 272.717 C 211.605 273.103,210.909 273.661,210.909 273.957 C 210.909 274.254,210.418 274.845,209.818 275.273 C 208.492 276.217,208.425 276.727,209.627 276.727 C 210.443 276.727,210.494 276.814,210.173 277.660 C 209.648 279.042,209.709 279.066,210.997 277.982 C 212.316 276.872,214.967 275.636,216.030 275.636 C 216.414 275.636,216.727 275.500,216.727 275.333 C 216.727 275.166,217.735 275.167,218.967 275.336 C 221.633 275.700,221.858 275.569,220.698 274.327 C 218.563 272.039,215.337 271.409,212.455 272.717 M237.332 273.087 C 236.252 274.370,236.086 274.993,236.907 274.678 C 237.206 274.563,237.369 274.338,237.270 274.178 C 237.171 274.017,237.415 273.971,237.813 274.075 C 238.668 274.299,239.133 273.427,238.635 272.536 C 238.344 272.016,238.171 272.089,237.332 273.087 M237.818 277.156 C 236.149 277.633,236.165 277.564,237.438 278.837 C 238.047 279.446,238.545 280.202,238.545 280.517 C 238.545 281.329,239.135 281.228,239.781 280.306 C 240.229 279.667,240.431 279.604,240.867 279.965 C 241.321 280.342,241.313 280.129,240.814 278.568 C 240.185 276.604,240.022 276.527,237.818 277.156 M227.455 278.324 C 224.875 279.547,223.015 281.615,222.416 283.926 C 221.875 286.009,221.877 286.013,222.925 285.364 C 223.518 284.996,223.716 285.002,223.960 285.393 C 224.174 285.738,224.577 285.317,225.360 283.930 C 225.964 282.859,227.548 280.964,228.879 279.719 C 231.644 277.132,231.097 276.597,227.455 278.324 M222.039 279.121 C 221.735 279.911,221.756 280.000,222.242 280.000 C 222.476 280.000,222.559 279.892,222.427 279.761 C 222.296 279.629,222.370 279.302,222.593 279.033 C 222.848 278.727,222.861 278.545,222.629 278.545 C 222.426 278.545,222.160 278.804,222.039 279.121 M231.812 280.781 C 229.738 282.602,228.863 285.050,229.773 286.485 C 230.156 287.089,231.636 285.364,231.636 284.315 C 231.636 283.806,231.905 283.636,232.708 283.636 C 233.743 283.636,233.767 283.598,233.398 282.539 C 233.187 281.936,233.117 281.036,233.242 280.539 C 233.534 279.375,233.385 279.401,231.812 280.781 M238.545 282.563 C 238.545 282.772,238.995 283.372,239.545 283.895 C 240.095 284.418,240.300 284.726,240.000 284.578 C 239.700 284.430,239.757 284.556,240.127 284.858 C 240.649 285.283,240.993 285.318,241.658 285.015 C 242.832 284.480,242.292 283.541,240.367 282.771 C 238.629 282.076,238.545 282.066,238.545 282.563 M233.957 284.928 C 234.077 285.242,234.019 285.397,233.825 285.277 C 233.527 285.092,232.366 287.223,232.410 287.875 C 232.419 287.999,232.207 288.239,231.940 288.408 C 231.605 288.621,231.758 288.718,232.434 288.722 C 233.038 288.725,233.630 288.418,233.979 287.919 C 234.627 286.994,234.748 284.364,234.143 284.364 C 233.922 284.364,233.838 284.618,233.957 284.928 M238.377 285.909 C 238.802 287.897,239.960 288.622,241.018 287.564 C 241.592 286.990,241.572 286.545,240.972 286.545 C 240.707 286.545,240.106 286.136,239.636 285.636 C 238.480 284.406,238.074 284.493,238.377 285.909 M235.278 287.000 C 235.281 287.850,235.442 288.791,235.636 289.091 C 235.893 289.487,235.990 289.506,235.994 289.160 C 235.997 288.899,236.130 288.765,236.288 288.862 C 236.733 289.137,236.789 286.976,236.357 286.170 C 235.731 284.999,235.272 285.351,235.278 287.000 M237.835 288.545 C 237.828 289.952,238.319 290.710,239.054 290.428 C 239.859 290.119,239.785 289.664,238.739 288.475 L 237.841 287.455 237.835 288.545 M218.775 296.818 C 218.654 297.268,218.553 298.339,218.550 299.198 C 218.546 300.479,218.432 300.740,217.912 300.652 C 217.400 300.566,217.301 300.771,217.394 301.727 C 217.457 302.377,217.361 302.909,217.180 302.909 C 216.998 302.909,216.631 303.318,216.364 303.818 C 215.701 305.056,215.479 304.972,214.791 303.221 C 214.303 301.978,214.108 301.790,213.678 302.148 C 213.322 302.443,213.081 302.459,212.920 302.199 C 212.595 301.674,211.979 301.719,212.091 302.259 C 212.141 302.502,211.814 302.868,211.364 303.073 C 210.485 303.473,210.268 304.000,210.982 304.000 C 211.321 304.000,211.321 304.097,210.982 304.436 C 210.742 304.676,210.558 305.126,210.574 305.436 C 210.599 305.925,210.629 305.928,210.803 305.455 C 212.163 301.757,214.286 303.446,213.939 307.949 L 213.712 310.887 214.751 311.282 C 215.322 311.499,216.178 311.579,216.653 311.460 C 217.203 311.322,217.431 311.380,217.282 311.622 C 217.140 311.852,217.480 312.000,218.152 312.000 C 219.411 312.000,220.050 311.221,220.750 308.831 C 221.743 305.438,225.059 304.818,224.214 308.183 C 223.859 309.598,222.759 309.385,223.045 307.956 C 223.244 306.961,223.203 306.878,222.711 307.287 C 222.402 307.543,222.233 307.972,222.336 308.240 C 222.438 308.508,222.364 308.727,222.170 308.727 C 221.641 308.727,221.746 309.331,222.389 309.973 C 223.152 310.736,224.273 310.142,224.590 308.808 C 224.719 308.263,225.089 307.504,225.412 307.119 C 225.736 306.735,225.813 306.529,225.584 306.663 C 225.081 306.955,224.667 306.034,224.959 305.273 C 225.111 304.877,224.917 304.727,224.251 304.727 C 223.746 304.727,223.265 304.523,223.182 304.274 C 223.079 303.965,222.622 304.133,221.744 304.802 L 220.458 305.783 220.232 304.135 C 220.106 303.220,220.173 302.174,220.382 301.783 C 220.673 301.240,220.630 301.031,220.190 300.862 C 219.787 300.707,219.636 300.204,219.674 299.140 C 219.757 296.811,219.664 296.000,219.315 296.000 C 219.138 296.000,218.895 296.368,218.775 296.818 M212.297 305.545 C 212.209 306.159,211.968 306.341,211.336 306.272 C 210.717 306.205,210.523 306.343,210.610 306.788 C 210.922 308.398,213.091 307.253,213.091 305.478 C 213.091 304.464,212.444 304.519,212.297 305.545 M200.417 306.545 C 199.989 307.245,199.638 307.960,199.638 308.133 C 199.637 308.307,199.309 308.363,198.909 308.258 C 198.508 308.153,198.273 308.216,198.385 308.398 C 198.497 308.579,198.415 308.727,198.203 308.727 C 197.991 308.727,197.818 309.055,197.818 309.455 C 197.818 309.855,197.999 310.182,198.221 310.182 C 198.442 310.182,198.539 310.401,198.436 310.669 C 198.333 310.937,199.052 312.194,200.034 313.462 C 201.015 314.730,201.818 315.922,201.818 316.110 C 201.818 316.299,202.090 316.228,202.423 315.954 C 202.970 315.502,202.988 315.531,202.605 316.249 C 202.086 317.223,202.066 317.569,202.545 317.273 C 202.753 317.145,202.909 317.458,202.909 318.000 C 202.909 318.634,202.767 318.864,202.484 318.689 C 202.198 318.512,202.134 318.624,202.290 319.031 C 202.420 319.368,202.347 319.636,202.126 319.636 C 201.867 319.636,201.889 319.829,202.189 320.190 C 202.567 320.646,202.555 320.708,202.119 320.541 C 201.454 320.286,200.142 321.638,200.713 321.991 C 200.933 322.127,201.065 322.022,201.009 321.754 C 200.954 321.489,201.155 321.268,201.455 321.263 C 202.249 321.249,202.954 320.730,202.712 320.339 C 202.597 320.152,202.685 320.000,202.909 320.000 C 203.133 320.000,203.215 319.836,203.091 319.636 C 202.967 319.436,202.999 319.273,203.160 319.273 C 203.322 319.273,203.455 318.700,203.455 318.000 C 203.455 317.300,203.322 316.727,203.160 316.727 C 202.999 316.727,202.961 316.574,203.077 316.387 C 203.192 316.200,202.629 315.029,201.825 313.785 C 199.761 310.591,200.410 307.675,203.256 307.356 C 203.740 307.301,204.025 307.369,203.889 307.505 C 203.753 307.641,203.967 307.981,204.366 308.261 C 205.302 308.916,205.288 309.890,204.331 310.757 C 203.585 311.432,203.561 311.432,203.058 310.744 C 202.776 310.358,202.545 310.247,202.545 310.497 C 202.545 310.747,202.382 310.851,202.182 310.727 C 201.650 310.399,201.736 311.487,202.273 311.881 C 205.311 314.113,207.786 309.725,204.964 307.110 C 204.491 306.672,204.022 306.079,203.920 305.793 C 203.775 305.382,203.547 305.446,202.836 306.099 L 201.936 306.925 201.566 306.099 C 201.200 305.284,201.185 305.290,200.417 306.545 M209.545 311.826 C 209.095 312.144,208.730 312.600,208.733 312.839 C 208.737 313.146,208.825 313.136,209.037 312.802 C 209.271 312.433,209.520 312.482,210.195 313.028 C 211.283 313.910,210.671 315.051,208.157 316.822 C 207.271 317.447,206.525 318.090,206.500 318.252 C 206.390 318.960,206.334 319.120,206.021 319.615 C 205.804 319.957,205.839 320.189,206.120 320.282 C 206.356 320.361,206.451 320.586,206.330 320.781 C 206.209 320.977,206.393 321.449,206.739 321.831 C 207.407 322.569,206.410 324.126,204.111 325.938 C 203.646 326.304,203.352 326.743,203.457 326.913 C 203.562 327.083,203.457 327.341,203.222 327.486 C 202.931 327.666,202.894 327.587,203.105 327.238 C 203.367 326.803,203.321 326.801,202.797 327.226 C 202.036 327.843,202.017 328.222,202.731 328.497 C 203.084 328.632,204.204 327.836,205.872 326.263 C 208.455 323.827,208.471 323.818,210.566 323.818 C 212.663 323.818,214.859 322.620,214.331 321.765 C 214.225 321.594,214.299 321.455,214.494 321.455 C 214.689 321.455,215.139 320.677,215.493 319.727 C 215.847 318.777,216.509 317.544,216.964 316.987 L 217.793 315.975 218.527 316.709 L 219.262 317.443 219.488 316.540 C 219.898 314.907,219.386 313.818,218.207 313.818 C 217.077 313.818,216.289 314.609,214.426 317.614 C 213.435 319.212,212.295 320.033,213.065 318.593 C 213.265 318.220,213.326 317.810,213.199 317.684 C 213.073 317.558,213.178 317.455,213.433 317.455 C 213.695 317.455,213.805 317.218,213.687 316.909 C 213.572 316.609,213.653 316.364,213.868 316.364 C 214.084 316.364,214.165 316.118,214.050 315.818 C 213.935 315.518,214.000 315.273,214.193 315.273 C 214.387 315.273,214.545 315.078,214.545 314.841 C 214.545 314.604,214.062 314.872,213.472 315.438 C 212.881 316.004,212.431 316.641,212.472 316.853 C 212.512 317.066,212.328 317.247,212.062 317.256 C 211.795 317.265,211.347 317.588,211.065 317.973 C 209.794 319.712,210.230 317.962,211.532 316.096 C 213.124 313.815,213.740 312.364,213.115 312.364 C 212.902 312.364,212.768 312.159,212.818 311.909 C 212.958 311.211,210.503 311.149,209.545 311.826 M195.636 313.112 C 195.636 313.324,195.841 313.375,196.091 313.224 C 196.421 313.026,196.413 313.114,196.064 313.545 C 195.795 313.877,195.315 314.047,194.973 313.930 C 194.638 313.815,194.936 314.217,195.636 314.823 C 196.336 315.430,197.073 315.835,197.273 315.723 C 197.473 315.611,197.516 315.653,197.369 315.815 C 197.222 315.977,197.386 316.343,197.733 316.627 C 198.154 316.973,198.182 317.066,197.818 316.909 C 197.454 316.752,197.483 316.846,197.903 317.191 C 198.250 317.475,198.428 317.815,198.297 317.945 C 198.167 318.075,198.259 318.182,198.501 318.182 C 198.743 318.182,198.893 318.450,198.834 318.777 C 198.772 319.124,199.004 319.415,199.392 319.476 C 199.839 319.546,199.992 319.411,199.858 319.063 C 199.749 318.778,199.818 318.545,200.011 318.545 C 200.205 318.545,200.364 318.136,200.364 317.636 C 200.364 317.136,200.186 316.727,199.970 316.727 C 199.753 316.727,199.645 316.523,199.729 316.273 C 199.813 316.023,199.622 315.602,199.305 315.337 C 198.853 314.960,198.846 314.913,199.273 315.123 C 199.573 315.270,199.433 314.966,198.961 314.449 C 198.490 313.931,197.903 313.585,197.656 313.679 C 197.409 313.774,196.998 313.598,196.741 313.289 C 196.203 312.642,195.636 312.551,195.636 313.112 M227.305 317.395 C 227.009 317.947,226.614 318.037,225.019 317.912 C 223.592 317.800,222.902 317.917,222.364 318.362 C 221.964 318.692,221.882 318.857,222.182 318.727 C 222.546 318.570,222.517 318.664,222.097 319.009 C 221.750 319.294,221.572 319.633,221.703 319.763 C 221.833 319.893,221.748 320.000,221.515 320.000 C 220.819 320.000,221.034 321.788,221.834 322.647 C 222.414 323.269,222.643 323.339,222.875 322.964 C 223.039 322.700,223.313 322.510,223.486 322.542 C 223.659 322.574,223.859 322.424,223.930 322.209 C 224.005 321.985,223.816 321.912,223.488 322.037 C 222.634 322.365,222.370 321.232,223.056 320.185 C 223.682 319.228,225.314 318.603,225.797 319.136 C 226.150 319.525,226.652 322.046,226.308 321.702 C 226.173 321.567,225.759 321.957,225.387 322.569 C 224.353 324.270,219.385 325.688,218.291 324.594 C 217.908 324.212,216.364 324.336,216.364 324.749 C 216.364 324.961,216.195 325.030,215.989 324.902 C 215.783 324.775,214.924 325.079,214.080 325.578 C 212.330 326.613,209.443 329.445,210.261 329.325 C 211.010 329.215,213.296 327.234,213.167 326.806 C 213.109 326.614,213.322 326.556,213.640 326.678 C 214.022 326.825,214.131 326.757,213.959 326.479 C 213.785 326.198,213.900 326.135,214.304 326.290 C 214.637 326.418,214.909 326.379,214.909 326.204 C 214.909 326.029,215.262 325.979,215.693 326.091 C 216.230 326.232,216.395 326.164,216.217 325.875 C 216.035 325.581,216.429 325.456,217.524 325.460 C 218.639 325.464,218.936 325.564,218.553 325.806 C 218.199 326.030,219.070 326.121,221.098 326.073 C 223.311 326.021,224.318 325.846,224.663 325.455 C 225.091 324.970,225.115 324.970,224.877 325.455 C 224.730 325.755,225.050 325.599,225.588 325.108 C 226.147 324.600,226.480 323.990,226.364 323.688 C 226.253 323.398,226.522 322.776,226.962 322.307 C 227.403 321.838,227.612 321.452,227.427 321.449 C 227.242 321.446,227.299 321.311,227.554 321.150 C 227.809 320.988,228.088 320.485,228.176 320.032 C 228.315 319.308,228.262 319.267,227.740 319.695 C 227.212 320.129,227.176 320.082,227.417 319.273 C 228.053 317.136,227.992 316.111,227.305 317.395 M202.818 321.808 C 202.368 322.336,202.150 322.513,202.334 322.202 C 202.517 321.891,202.149 322.159,201.515 322.798 C 200.276 324.049,200.053 325.108,200.883 325.796 C 201.519 326.324,204.517 323.834,204.210 323.033 C 204.107 322.765,204.181 322.545,204.375 322.545 C 204.569 322.545,204.727 322.164,204.727 321.697 C 204.727 320.556,203.841 320.608,202.818 321.808 M194.091 323.668 C 193.462 324.032,193.199 324.768,193.727 324.684 C 194.487 324.564,194.924 324.772,194.694 325.144 C 194.512 325.439,194.728 325.488,195.431 325.311 C 196.161 325.128,196.352 325.179,196.153 325.502 C 195.966 325.804,196.070 325.869,196.486 325.710 C 196.819 325.582,197.091 325.631,197.091 325.818 C 197.091 326.006,197.363 326.055,197.696 325.927 C 198.135 325.758,198.220 325.827,198.003 326.176 C 197.805 326.497,197.846 326.571,198.126 326.398 C 198.357 326.256,198.545 326.332,198.545 326.569 C 198.545 326.887,198.688 326.880,199.095 326.542 C 199.716 326.026,199.216 325.091,198.319 325.091 C 198.044 325.091,197.818 324.918,197.818 324.706 C 197.818 324.494,197.655 324.422,197.455 324.545 C 197.255 324.669,197.091 324.587,197.091 324.364 C 197.091 324.140,196.941 324.050,196.758 324.163 C 196.575 324.276,196.371 324.225,196.304 324.050 C 196.097 323.511,194.761 323.281,194.091 323.668 M208.727 326.165 C 208.027 326.538,206.996 327.327,206.435 327.917 L 205.415 328.990 206.964 329.198 C 208.824 329.447,208.649 329.545,210.600 327.181 C 211.467 326.131,211.891 325.497,211.542 325.772 C 211.128 326.098,210.909 326.130,210.909 325.863 C 210.909 325.283,210.197 325.382,208.727 326.165 M199.490 326.852 C 199.364 327.056,199.438 327.332,199.655 327.466 C 200.214 327.811,200.574 327.338,200.108 326.871 C 199.847 326.610,199.643 326.604,199.490 326.852 M213.059 327.000 C 212.974 327.050,212.334 327.582,211.635 328.182 L 210.364 329.273 211.432 328.091 C 212.019 327.441,212.660 326.909,212.856 326.909 C 213.052 326.909,213.143 326.950,213.059 327.000 M215.518 328.164 C 213.573 328.858,213.470 329.093,215.121 329.075 C 217.094 329.053,219.614 328.531,220.102 328.043 C 220.696 327.449,217.270 327.540,215.518 328.164 " stroke="none" fill="#a51e39" fill-rule="evenodd"></path><path id="path3" d="M157.435 93.000 L 156.182 94.364 157.545 93.110 C 158.295 92.421,158.909 91.808,158.909 91.747 C 158.909 91.469,158.601 91.731,157.435 93.000 M243.749 296.182 C 243.751 297.382,243.819 297.829,243.900 297.175 C 243.981 296.522,243.979 295.540,243.896 294.993 C 243.813 294.447,243.747 294.982,243.749 296.182 " stroke="none" fill="#557378" fill-rule="evenodd"></path><path id="path4" d="M248.727 96.499 C 248.727 96.892,250.172 99.636,250.378 99.636 C 250.478 99.636,250.210 98.941,249.781 98.091 C 248.938 96.419,248.727 96.101,248.727 96.499 M192.772 102.369 C 189.047 103.044,188.789 103.589,192.456 103.037 C 231.012 97.231,244.123 133.218,220.960 181.273 L 219.383 184.545 219.529 182.545 C 219.844 178.236,220.835 172.660,222.243 167.273 C 226.998 149.078,227.195 143.161,223.408 132.279 C 217.646 115.726,204.932 106.184,191.455 108.297 L 189.273 108.639 192.288 108.683 C 202.115 108.827,210.532 113.432,215.224 121.231 C 222.783 133.794,218.827 156.474,202.844 192.193 L 199.423 199.841 202.957 205.829 C 204.900 209.123,206.626 211.988,206.791 212.196 C 206.956 212.404,207.118 212.731,207.152 212.923 C 207.185 213.115,208.560 215.564,210.208 218.364 C 211.855 221.164,213.464 223.904,213.783 224.452 C 214.573 225.809,214.338 226.049,218.000 220.134 C 219.800 217.226,221.816 213.982,222.479 212.926 L 223.685 211.005 222.561 207.593 C 221.943 205.717,221.248 203.098,221.016 201.773 L 220.595 199.364 222.430 195.228 C 238.621 158.738,240.372 129.700,227.369 113.356 C 220.371 104.559,205.958 99.982,192.772 102.369 M152.364 127.023 C 152.364 127.085,152.895 127.617,153.545 128.205 L 154.727 129.273 153.659 128.091 C 152.664 126.989,152.364 126.742,152.364 127.023 M172.850 132.727 C 172.850 134.227,172.914 134.841,172.992 134.091 C 173.071 133.341,173.071 132.114,172.992 131.364 C 172.914 130.614,172.850 131.227,172.850 132.727 M141.546 132.909 C 141.550 133.709,141.625 133.994,141.712 133.541 C 141.799 133.089,141.795 132.434,141.704 132.087 C 141.613 131.739,141.542 132.109,141.546 132.909 M141.546 137.636 C 141.550 138.436,141.625 138.721,141.712 138.268 C 141.799 137.816,141.795 137.162,141.704 136.814 C 141.613 136.466,141.542 136.836,141.546 137.636 M181.210 244.091 C 168.544 278.389,165.951 299.232,173.269 307.929 C 174.624 309.540,177.692 311.706,178.704 311.766 C 179.178 311.795,179.476 311.965,179.365 312.144 C 179.252 312.327,179.598 312.361,180.158 312.220 C 180.809 312.057,181.071 312.101,180.918 312.349 C 180.765 312.596,181.517 312.727,183.091 312.727 C 184.758 312.727,185.421 312.604,185.249 312.325 C 185.079 312.050,185.261 312.005,185.818 312.182 C 186.413 312.370,186.562 312.321,186.364 312.000 C 186.165 311.679,186.315 311.630,186.909 311.818 C 187.518 312.011,187.655 311.960,187.444 311.619 C 187.261 311.324,187.307 311.251,187.573 311.415 C 190.418 313.174,198.204 301.139,198.721 294.184 C 198.788 293.283,198.962 292.246,199.108 291.880 C 199.254 291.513,199.254 290.040,199.109 288.607 C 198.875 286.299,198.663 283.257,198.568 280.826 C 198.447 277.764,195.424 263.636,194.889 263.636 C 194.737 263.636,194.706 263.284,194.819 262.852 C 194.950 262.350,194.885 262.154,194.637 262.307 C 194.393 262.458,194.320 262.277,194.440 261.819 C 194.551 261.396,194.451 261.091,194.203 261.091 C 193.968 261.091,193.864 260.948,193.972 260.772 C 194.080 260.597,193.764 259.261,193.268 257.804 C 192.337 255.066,191.741 253.933,192.205 255.782 C 192.735 257.892,191.734 256.370,191.100 254.101 C 190.749 252.845,190.162 251.228,189.795 250.506 C 189.428 249.784,189.153 248.873,189.182 248.482 C 189.246 247.627,186.199 241.091,185.736 241.091 C 185.558 241.091,185.513 240.927,185.636 240.727 C 185.760 240.527,185.693 240.364,185.487 240.364 C 185.282 240.364,185.218 240.091,185.346 239.759 C 185.515 239.319,185.446 239.235,185.097 239.451 C 184.788 239.642,184.702 239.608,184.858 239.356 C 185.108 238.951,184.422 237.091,184.021 237.091 C 183.897 237.091,182.632 240.241,181.210 244.091 M225.818 255.091 C 226.497 255.791,227.134 256.364,227.234 256.364 C 227.334 256.364,226.860 255.791,226.182 255.091 C 225.503 254.391,224.866 253.818,224.766 253.818 C 224.666 253.818,225.140 254.391,225.818 255.091 M231.721 265.455 C 231.721 266.155,231.796 266.441,231.887 266.091 C 231.978 265.741,231.978 265.168,231.887 264.818 C 231.796 264.468,231.721 264.755,231.721 265.455 M210.641 268.988 C 211.194 269.072,212.012 269.070,212.460 268.983 C 212.907 268.897,212.455 268.829,211.455 268.831 C 210.455 268.834,210.089 268.905,210.641 268.988 M223.372 276.000 C 223.372 276.900,223.443 277.268,223.529 276.818 C 223.616 276.368,223.616 275.632,223.529 275.182 C 223.443 274.732,223.372 275.100,223.372 276.000 M206.341 327.727 L 205.273 328.909 206.455 327.841 C 207.105 327.254,207.636 326.722,207.636 326.659 C 207.636 326.378,207.336 326.626,206.341 327.727 M209.240 328.810 C 208.858 329.257,208.791 329.436,209.091 329.206 C 209.391 328.977,209.759 328.775,209.909 328.758 C 210.218 328.723,210.319 328.380,210.089 328.149 C 210.004 328.065,209.622 328.362,209.240 328.810 " stroke="none" fill="#7c9496" fill-rule="evenodd"></path><path id="path5" d="M189.920 108.995 C 190.876 109.070,192.349 109.069,193.193 108.993 C 194.037 108.917,193.255 108.855,191.455 108.856 C 189.655 108.857,188.964 108.920,189.920 108.995 M260.483 133.273 C 260.485 134.673,260.550 135.201,260.629 134.446 C 260.708 133.692,260.706 132.547,260.626 131.901 C 260.546 131.255,260.481 131.873,260.483 133.273 M218.644 134.909 C 218.644 135.809,218.715 136.177,218.802 135.727 C 218.889 135.277,218.889 134.541,218.802 134.091 C 218.715 133.641,218.644 134.009,218.644 134.909 M141.175 135.273 C 141.175 135.973,141.250 136.259,141.342 135.909 C 141.433 135.559,141.433 134.986,141.342 134.636 C 141.250 134.286,141.175 134.573,141.175 135.273 M218.644 138.182 C 218.644 139.082,218.715 139.450,218.802 139.000 C 218.889 138.550,218.889 137.814,218.802 137.364 C 218.715 136.914,218.644 137.282,218.644 138.182 M163.728 289.636 C 163.732 290.436,163.807 290.721,163.894 290.268 C 163.981 289.816,163.977 289.162,163.886 288.814 C 163.795 288.466,163.724 288.836,163.728 289.636 M243.728 292.909 C 243.732 293.709,243.807 293.994,243.894 293.541 C 243.981 293.089,243.977 292.434,243.886 292.087 C 243.795 291.739,243.724 292.109,243.728 292.909 M163.728 299.091 C 163.732 299.891,163.807 300.175,163.894 299.723 C 163.981 299.271,163.977 298.616,163.886 298.268 C 163.795 297.921,163.724 298.291,163.728 299.091 M243.728 299.455 C 243.732 300.255,243.807 300.539,243.894 300.087 C 243.981 299.634,243.977 298.980,243.886 298.632 C 243.795 298.284,243.724 298.655,243.728 299.455 M187.727 326.796 C 188.077 326.888,188.650 326.888,189.000 326.796 C 189.350 326.705,189.064 326.630,188.364 326.630 C 187.664 326.630,187.377 326.705,187.727 326.796 " stroke="none" fill="#365b64" fill-rule="evenodd"></path><path id="path6" d="M189.109 248.727 C 189.101 249.377,189.706 250.415,189.950 250.171 C 190.045 250.076,189.896 249.590,189.619 249.090 C 189.328 248.564,189.114 248.411,189.109 248.727 M190.804 253.204 C 191.965 256.805,191.988 256.860,192.242 256.606 C 192.487 256.362,190.634 251.006,190.215 250.748 C 190.075 250.661,190.340 251.767,190.804 253.204 " stroke="none" fill="#748c94" fill-rule="evenodd"></path><path id="path7" d="M163.569 103.305 C 161.710 104.260,161.633 104.529,162.699 106.349 L 163.637 107.949 165.273 107.034 C 167.176 105.970,167.106 106.175,166.187 104.374 C 165.248 102.533,165.150 102.493,163.569 103.305 M159.273 112.604 C 164.035 113.341,166.640 114.823,168.123 117.636 C 168.439 118.236,168.705 118.598,168.713 118.440 C 168.849 115.742,163.898 112.300,160.045 112.413 C 159.120 112.440,158.773 112.526,159.273 112.604 M160.321 114.216 C 159.963 114.442,160.112 114.536,160.836 114.540 C 161.396 114.543,162.352 114.803,162.961 115.118 C 163.570 115.432,164.148 115.609,164.247 115.511 C 164.768 114.990,161.041 113.760,160.321 114.216 M153.818 127.818 C 154.497 128.518,155.134 129.091,155.234 129.091 C 155.334 129.091,154.860 128.518,154.182 127.818 C 153.503 127.118,152.866 126.545,152.766 126.545 C 152.666 126.545,153.140 127.118,153.818 127.818 M157.643 136.720 L 156.219 138.179 157.453 139.453 C 158.985 141.034,159.197 141.033,160.734 139.447 L 161.975 138.167 160.522 136.714 L 159.068 135.261 157.643 136.720 M160.144 137.051 C 160.874 137.814,161.027 138.178,160.701 138.380 C 160.412 138.559,160.344 138.508,160.511 138.238 C 160.661 137.994,160.549 137.818,160.242 137.818 C 159.952 137.818,159.616 137.562,159.496 137.250 C 159.376 136.937,159.113 136.783,158.912 136.908 C 158.505 137.159,158.406 136.624,158.788 136.242 C 159.108 135.923,159.002 135.860,160.144 137.051 M199.849 230.909 C 200.199 232.199,201.410 233.818,202.025 233.818 C 202.866 233.818,202.638 233.284,201.074 231.592 C 199.832 230.249,199.641 230.142,199.849 230.909 M208.727 233.412 C 208.727 233.589,209.055 233.819,209.455 233.924 C 210.185 234.115,210.488 234.909,209.830 234.909 C 209.636 234.909,209.582 235.181,209.709 235.513 C 209.904 236.020,209.990 235.982,210.251 235.278 C 210.476 234.670,210.393 234.253,209.952 233.765 C 209.303 233.048,208.727 232.882,208.727 233.412 M201.656 235.242 C 201.543 235.425,202.002 235.915,202.677 236.333 C 204.064 237.190,204.364 237.256,204.364 236.706 C 204.364 236.494,204.231 236.403,204.068 236.503 C 203.668 236.751,201.749 235.463,202.058 235.154 C 202.193 235.020,202.204 234.909,202.082 234.909 C 201.961 234.909,201.769 235.059,201.656 235.242 M217.393 235.636 C 217.291 235.944,217.679 236.620,218.284 237.185 C 219.071 237.921,219.311 238.426,219.185 239.083 C 219.091 239.575,219.154 239.891,219.325 239.786 C 219.896 239.433,219.646 238.249,218.781 237.210 C 218.311 236.644,217.848 235.936,217.751 235.636 C 217.595 235.152,217.555 235.152,217.393 235.636 M207.119 235.955 C 206.852 236.386,208.136 237.818,208.790 237.818 C 209.024 237.818,209.539 238.105,209.933 238.455 C 210.624 239.067,210.637 239.064,210.268 238.364 C 209.812 237.498,208.000 235.745,208.000 236.169 C 208.000 236.332,208.286 236.698,208.636 236.983 C 209.110 237.368,209.133 237.464,208.727 237.358 C 208.427 237.279,207.996 236.846,207.769 236.394 C 207.527 235.914,207.257 235.731,207.119 235.955 M215.222 236.385 L 214.364 237.134 215.455 236.495 C 216.890 235.655,216.912 235.636,216.465 235.636 C 216.253 235.636,215.694 235.973,215.222 236.385 M213.903 238.152 C 214.143 238.468,214.386 238.795,214.443 238.879 C 214.499 238.962,214.545 238.703,214.545 238.303 C 214.545 237.902,214.303 237.576,214.006 237.576 C 213.572 237.576,213.552 237.689,213.903 238.152 M216.387 238.247 C 216.360 238.947,217.301 240.005,217.935 239.989 C 218.171 239.983,218.067 239.805,217.704 239.594 C 217.341 239.383,216.902 238.856,216.727 238.423 C 216.492 237.840,216.404 237.794,216.387 238.247 M204.727 239.054 C 204.727 239.347,205.464 240.191,206.364 240.929 C 207.264 241.666,208.000 242.468,208.000 242.710 C 208.000 242.953,208.230 243.152,208.512 243.152 C 209.186 243.152,207.766 241.181,206.891 240.903 C 206.166 240.673,204.821 239.273,205.325 239.273 C 205.516 239.273,205.893 239.477,206.162 239.727 C 206.550 240.087,206.599 240.087,206.397 239.729 C 205.947 238.933,204.727 238.439,204.727 239.054 M207.774 239.909 C 208.060 240.459,208.748 241.318,209.302 241.818 C 210.174 242.605,210.144 242.517,209.077 241.161 C 208.056 239.863,207.936 239.536,208.377 239.257 C 208.794 238.993,208.731 238.919,208.082 238.915 C 207.295 238.909,207.280 238.958,207.774 239.909 M211.700 239.953 C 212.165 240.527,212.668 240.926,212.818 240.840 C 212.968 240.755,213.091 240.826,213.091 241.000 C 213.091 241.174,213.344 241.633,213.654 242.021 C 214.164 242.661,214.165 242.620,213.667 241.590 C 213.365 240.964,212.856 240.351,212.536 240.228 C 212.216 240.106,212.045 239.857,212.157 239.677 C 212.268 239.497,212.102 239.250,211.786 239.129 C 210.830 238.762,210.819 238.867,211.700 239.953 M215.651 241.364 C 216.117 242.214,216.641 242.909,216.816 242.909 C 216.991 242.909,217.016 243.114,216.872 243.364 C 216.728 243.614,216.745 243.697,216.908 243.549 C 217.072 243.400,217.466 243.482,217.785 243.730 C 218.103 243.979,217.722 243.364,216.938 242.364 C 214.914 239.783,214.691 239.609,215.651 241.364 M202.379 241.793 C 202.264 241.979,202.362 242.250,202.596 242.395 C 202.852 242.553,202.924 242.501,202.778 242.264 C 202.638 242.037,202.883 241.803,203.358 241.712 C 204.176 241.555,204.176 241.553,203.385 241.504 C 202.947 241.477,202.494 241.607,202.379 241.793 M203.840 242.375 C 202.941 243.055,203.532 243.047,204.727 242.364 C 205.255 242.062,205.407 241.843,205.091 241.843 C 204.791 241.842,204.228 242.082,203.840 242.375 M220.800 245.527 C 220.560 245.767,220.388 246.463,220.418 247.073 L 220.473 248.182 220.632 247.091 C 220.720 246.491,220.961 245.795,221.168 245.545 C 221.647 244.965,221.375 244.952,220.800 245.527 M206.572 245.792 C 207.286 245.932,208.432 246.462,209.117 246.970 C 210.577 248.051,211.641 248.660,211.091 248.100 C 209.808 246.793,207.405 245.459,206.400 245.496 L 205.273 245.538 206.572 245.792 M215.301 246.466 C 215.286 246.723,214.905 247.081,214.455 247.261 C 213.998 247.445,213.877 247.598,214.182 247.608 C 215.031 247.635,215.746 247.045,215.528 246.497 C 215.380 246.125,215.323 246.117,215.301 246.466 M207.273 248.364 C 208.885 249.976,207.756 251.216,205.808 249.971 L 204.909 249.396 205.789 250.170 C 206.909 251.155,208.141 251.013,208.302 249.879 C 208.417 249.066,207.494 247.636,206.853 247.636 C 206.684 247.636,206.873 247.964,207.273 248.364 M220.727 248.606 C 220.727 248.795,221.136 249.504,221.636 250.182 C 222.136 250.860,222.545 251.308,222.545 251.178 C 222.545 251.048,222.136 250.339,221.636 249.602 C 221.136 248.865,220.727 248.417,220.727 248.606 M221.455 254.909 C 221.863 255.709,222.278 256.364,222.378 256.364 C 222.478 256.364,222.226 255.709,221.818 254.909 C 221.410 254.109,220.994 253.455,220.894 253.455 C 220.794 253.455,221.046 254.109,221.455 254.909 M202.022 320.400 C 202.117 320.553,201.496 321.097,200.643 321.609 C 198.995 322.596,199.004 322.891,200.655 322.037 C 202.008 321.337,203.104 320.121,202.381 320.121 C 202.089 320.121,201.928 320.247,202.022 320.400 M198.815 325.873 C 199.063 326.180,199.179 326.518,199.072 326.625 C 198.965 326.732,199.134 326.918,199.447 327.038 C 200.129 327.300,199.585 326.049,198.816 325.587 C 198.456 325.370,198.455 325.428,198.815 325.873 M216.636 325.711 C 217.086 325.798,217.823 325.798,218.273 325.711 C 218.723 325.625,218.355 325.554,217.455 325.554 C 216.555 325.554,216.186 325.625,216.636 325.711 M221.187 326.079 C 221.740 326.163,222.558 326.160,223.005 326.074 C 223.452 325.988,223.000 325.919,222.000 325.922 C 221.000 325.925,220.634 325.996,221.187 326.079 M212.909 326.864 C 211.727 327.601,209.510 329.818,209.955 329.818 C 210.106 329.818,210.647 329.321,211.158 328.713 C 211.670 328.106,212.682 327.295,213.408 326.911 C 214.133 326.528,214.564 326.207,214.364 326.199 C 214.164 326.191,213.509 326.490,212.909 326.864 M205.909 329.342 C 206.259 329.433,206.832 329.433,207.182 329.342 C 207.532 329.250,207.245 329.175,206.545 329.175 C 205.845 329.175,205.559 329.250,205.909 329.342 M214.091 329.348 C 214.541 329.434,215.277 329.434,215.727 329.348 C 216.177 329.261,215.809 329.190,214.909 329.190 C 214.009 329.190,213.641 329.261,214.091 329.348 " stroke="none" fill="#761a30" fill-rule="evenodd"></path><path id="path8" d="M213.004 329.712 C 213.457 329.799,214.111 329.795,214.459 329.704 C 214.806 329.613,214.436 329.542,213.636 329.546 C 212.836 329.550,212.552 329.625,213.004 329.712 " stroke="none" fill="#2c2c3c" fill-rule="evenodd"></path></g></svg>